include "hUGE.inc"

SECTION "FutureMusic Song Data", ROMX

FutureMusic::
db 7
dw order_cnt
dw order1, order2, order3, order4
dw duty_instruments, wave_instruments, noise_instruments
dw routines
dw waves

order_cnt: db 26
order1: dw P0,P4,P8,P12,P16,P20,P24,P28,P32,P32,P40,P44,P48
order2: dw P1,P5,P5,P13,P17,P21,P25,P29,P33,P33,P33,P45,P49
order3: dw P1,P6,P10,P14,P18,P22,P26,P30,P34,P38,P42,P46,P50
order4: dw P3,P3,P11,P3,P3,P23,P3,P31,P6,P39,P3,P3,P51

P0:
 dn E_4,5,$000
 dn ___,0,$000
 dn ___,0,$000
 dn ___,0,$000
 dn ___,0,$000
 dn ___,0,$000
 dn ___,0,$000
 dn ___,0,$000
 dn ___,0,$000
 dn ___,0,$000
 dn ___,0,$000
 dn ___,0,$000
 dn F_4,5,$000
 dn ___,0,$000
 dn ___,0,$000
 dn ___,0,$000
 dn E_4,5,$000
 dn ___,0,$000
 dn ___,0,$000
 dn ___,0,$000
 dn ___,0,$000
 dn ___,0,$000
 dn ___,0,$000
 dn ___,0,$000
 dn D_4,5,$000
 dn ___,0,$000
 dn ___,0,$000
 dn ___,0,$000
 dn ___,0,$000
 dn ___,0,$000
 dn ___,0,$000
 dn ___,0,$000
 dn E_4,5,$000
 dn ___,0,$000
 dn ___,0,$000
 dn ___,0,$000
 dn ___,0,$000
 dn ___,0,$000
 dn ___,0,$000
 dn ___,0,$000
 dn ___,0,$000
 dn ___,0,$000
 dn ___,0,$000
 dn ___,0,$000
 dn F_4,5,$000
 dn ___,0,$000
 dn ___,0,$000
 dn ___,0,$000
 dn G_4,1,$C0D
 dn ___,0,$000
 dn ___,0,$212
 dn ___,0,$E00
 dn ___,0,$000
 dn ___,0,$000
 dn ___,0,$000
 dn ___,0,$000
 dn F_4,1,$C0D
 dn ___,0,$000
 dn ___,0,$212
 dn ___,0,$E00
 dn ___,0,$000
 dn ___,0,$000
 dn ___,0,$000
 dn ___,0,$000

P1:
 dn ___,0,$E00
 dn ___,0,$000
 dn ___,0,$000
 dn ___,0,$000
 dn ___,0,$000
 dn ___,0,$000
 dn ___,0,$000
 dn ___,0,$000
 dn ___,0,$000
 dn ___,0,$000
 dn ___,0,$000
 dn ___,0,$000
 dn ___,0,$000
 dn ___,0,$000
 dn ___,0,$000
 dn ___,0,$000
 dn ___,0,$000
 dn ___,0,$000
 dn ___,0,$000
 dn ___,0,$000
 dn ___,0,$000
 dn ___,0,$000
 dn ___,0,$000
 dn ___,0,$000
 dn ___,0,$000
 dn ___,0,$000
 dn ___,0,$000
 dn ___,0,$000
 dn ___,0,$000
 dn ___,0,$000
 dn ___,0,$000
 dn ___,0,$000
 dn ___,0,$000
 dn ___,0,$000
 dn ___,0,$000
 dn ___,0,$000
 dn ___,0,$000
 dn ___,0,$000
 dn ___,0,$000
 dn ___,0,$000
 dn ___,0,$000
 dn ___,0,$000
 dn ___,0,$000
 dn ___,0,$000
 dn ___,0,$000
 dn ___,0,$000
 dn ___,0,$000
 dn ___,0,$000
 dn ___,0,$000
 dn ___,0,$000
 dn ___,0,$000
 dn ___,0,$000
 dn ___,0,$000
 dn ___,0,$000
 dn ___,0,$000
 dn ___,0,$000
 dn ___,0,$000
 dn ___,0,$000
 dn ___,0,$000
 dn ___,0,$000
 dn ___,0,$000
 dn ___,0,$000
 dn ___,0,$000
 dn ___,0,$000

P3:
 dn G_6,1,$000
 dn ___,0,$000
 dn ___,0,$000
 dn ___,0,$000
 dn G_6,1,$000
 dn ___,0,$000
 dn ___,0,$000
 dn ___,0,$000
 dn G_6,1,$000
 dn ___,0,$000
 dn ___,0,$000
 dn ___,0,$000
 dn G_6,1,$000
 dn ___,0,$000
 dn ___,0,$000
 dn ___,0,$000
 dn G_6,1,$000
 dn ___,0,$000
 dn ___,0,$000
 dn ___,0,$000
 dn G_6,1,$000
 dn ___,0,$000
 dn ___,0,$000
 dn ___,0,$000
 dn G_6,1,$000
 dn ___,0,$000
 dn ___,0,$000
 dn ___,0,$000
 dn G_6,1,$000
 dn ___,0,$000
 dn ___,0,$000
 dn ___,0,$000
 dn G_6,1,$000
 dn ___,0,$000
 dn ___,0,$000
 dn ___,0,$000
 dn G_6,1,$000
 dn ___,0,$000
 dn ___,0,$000
 dn ___,0,$000
 dn G_6,1,$000
 dn ___,0,$000
 dn ___,0,$000
 dn ___,0,$000
 dn G_6,1,$000
 dn ___,0,$000
 dn ___,0,$000
 dn ___,0,$000
 dn G_6,1,$000
 dn ___,0,$000
 dn ___,0,$000
 dn ___,0,$000
 dn G_6,1,$000
 dn ___,0,$000
 dn ___,0,$000
 dn ___,0,$000
 dn G_6,1,$000
 dn ___,0,$000
 dn ___,0,$000
 dn ___,0,$000
 dn G_6,1,$000
 dn ___,0,$000
 dn ___,0,$000
 dn ___,0,$000

P4:
 dn E_4,5,$000
 dn ___,0,$000
 dn ___,0,$000
 dn ___,0,$000
 dn ___,0,$000
 dn ___,0,$000
 dn ___,0,$000
 dn ___,0,$000
 dn ___,0,$000
 dn ___,0,$000
 dn ___,0,$000
 dn ___,0,$000
 dn F_4,5,$000
 dn ___,0,$000
 dn ___,0,$000
 dn ___,0,$000
 dn E_4,5,$000
 dn ___,0,$000
 dn ___,0,$000
 dn ___,0,$000
 dn ___,0,$000
 dn ___,0,$000
 dn ___,0,$000
 dn ___,0,$000
 dn D_4,5,$000
 dn ___,0,$000
 dn ___,0,$000
 dn ___,0,$000
 dn ___,0,$000
 dn ___,0,$000
 dn ___,0,$000
 dn ___,0,$000
 dn E_4,5,$000
 dn ___,0,$000
 dn ___,0,$000
 dn ___,0,$000
 dn ___,0,$000
 dn ___,0,$000
 dn ___,0,$000
 dn ___,0,$000
 dn ___,0,$000
 dn ___,0,$000
 dn ___,0,$000
 dn ___,0,$000
 dn F_4,5,$000
 dn ___,0,$000
 dn ___,0,$000
 dn ___,0,$000
 dn G_4,1,$000
 dn ___,0,$000
 dn ___,0,$212
 dn ___,0,$E00
 dn A_4,5,$037
 dn ___,0,$10F
 dn ___,0,$000
 dn ___,0,$000
 dn F_4,5,$000
 dn ___,0,$000
 dn F_4,5,$212
 dn ___,0,$E00
 dn D_4,5,$000
 dn ___,0,$21A
 dn D_4,5,$000
 dn ___,0,$212

P5:
 dn E_5,9,$C0B
 dn ___,0,$000
 dn E_5,9,$C09
 dn ___,0,$000
 dn E_5,9,$C08
 dn ___,0,$000
 dn E_5,9,$C07
 dn ___,0,$000
 dn E_5,9,$C06
 dn ___,0,$000
 dn E_5,9,$C0B
 dn ___,0,$000
 dn E_5,9,$C09
 dn ___,0,$000
 dn E_5,9,$C08
 dn ___,0,$000
 dn E_5,9,$C0B
 dn ___,0,$000
 dn E_5,9,$C09
 dn ___,0,$000
 dn E_5,9,$C08
 dn ___,0,$000
 dn E_5,9,$C07
 dn ___,0,$000
 dn E_5,9,$C06
 dn ___,0,$000
 dn E_5,9,$C0B
 dn ___,0,$000
 dn E_5,9,$C09
 dn ___,0,$000
 dn E_5,9,$C08
 dn ___,0,$000
 dn G_5,9,$C0B
 dn ___,0,$000
 dn G_5,9,$C09
 dn ___,0,$000
 dn G_5,9,$C08
 dn ___,0,$000
 dn G_5,9,$C07
 dn ___,0,$000
 dn G_5,9,$C06
 dn ___,0,$000
 dn G_5,9,$C0B
 dn ___,0,$000
 dn G_5,9,$C09
 dn ___,0,$000
 dn G_5,9,$C08
 dn ___,0,$000
 dn G_5,9,$C0B
 dn ___,0,$000
 dn G_5,9,$C09
 dn ___,0,$000
 dn G_5,9,$C08
 dn ___,0,$000
 dn G_5,9,$C07
 dn ___,0,$000
 dn G_5,9,$C0A
 dn ___,0,$21B
 dn ___,0,$000
 dn ___,0,$000
 dn E_5,9,$C0A
 dn ___,0,$21B
 dn ___,0,$000
 dn ___,0,$000

P6:
 dn ___,0,$000
 dn ___,0,$000
 dn ___,0,$000
 dn ___,0,$000
 dn ___,0,$000
 dn ___,0,$000
 dn ___,0,$000
 dn ___,0,$000
 dn ___,0,$000
 dn ___,0,$000
 dn ___,0,$000
 dn ___,0,$000
 dn ___,0,$000
 dn ___,0,$000
 dn ___,0,$000
 dn ___,0,$000
 dn ___,0,$000
 dn ___,0,$000
 dn ___,0,$000
 dn ___,0,$000
 dn ___,0,$000
 dn ___,0,$000
 dn ___,0,$000
 dn ___,0,$000
 dn ___,0,$000
 dn ___,0,$000
 dn ___,0,$000
 dn ___,0,$000
 dn ___,0,$000
 dn ___,0,$000
 dn ___,0,$000
 dn ___,0,$000
 dn ___,0,$000
 dn ___,0,$000
 dn ___,0,$000
 dn ___,0,$000
 dn ___,0,$000
 dn ___,0,$000
 dn ___,0,$000
 dn ___,0,$000
 dn ___,0,$000
 dn ___,0,$000
 dn ___,0,$000
 dn ___,0,$000
 dn ___,0,$000
 dn ___,0,$000
 dn ___,0,$000
 dn ___,0,$000
 dn ___,0,$000
 dn ___,0,$000
 dn ___,0,$000
 dn ___,0,$000
 dn ___,0,$000
 dn ___,0,$000
 dn ___,0,$000
 dn ___,0,$000
 dn ___,0,$000
 dn ___,0,$000
 dn ___,0,$000
 dn ___,0,$000
 dn ___,0,$000
 dn ___,0,$000
 dn ___,0,$000
 dn ___,0,$000

P8:
 dn E_4,5,$000
 dn ___,0,$000
 dn D_4,5,$000
 dn ___,0,$000
 dn ___,0,$000
 dn E_4,5,$000
 dn ___,0,$000
 dn F_4,5,$000
 dn ___,0,$000
 dn C_4,5,$000
 dn ___,0,$000
 dn E_4,5,$000
 dn ___,0,$000
 dn D_4,5,$000
 dn ___,0,$000
 dn ___,0,$000
 dn E_4,5,$000
 dn ___,0,$000
 dn D_4,5,$000
 dn ___,0,$000
 dn ___,0,$000
 dn E_4,5,$000
 dn ___,0,$000
 dn F_4,5,$000
 dn ___,0,$000
 dn C_4,5,$000
 dn ___,0,$000
 dn E_4,5,$000
 dn ___,0,$000
 dn D_4,5,$000
 dn ___,0,$000
 dn ___,0,$000
 dn E_4,5,$000
 dn ___,0,$000
 dn D_4,5,$000
 dn ___,0,$000
 dn ___,0,$000
 dn E_4,5,$000
 dn ___,0,$000
 dn F_4,5,$000
 dn ___,0,$000
 dn C_4,5,$000
 dn ___,0,$000
 dn E_4,5,$000
 dn ___,0,$000
 dn D_4,5,$000
 dn ___,0,$000
 dn ___,0,$000
 dn E_4,5,$000
 dn ___,0,$000
 dn D_4,5,$000
 dn ___,0,$000
 dn ___,0,$000
 dn E_4,5,$000
 dn ___,0,$000
 dn ___,0,$000
 dn E_4,5,$000
 dn ___,0,$E00
 dn ___,0,$000
 dn E_4,5,$000
 dn E_4,5,$E00
 dn E_4,5,$207
 dn E_4,5,$205
 dn E_4,5,$207

P10:
 dn E_3,1,$000
 dn ___,0,$E00
 dn ___,0,$000
 dn ___,0,$000
 dn ___,0,$000
 dn ___,0,$000
 dn E_3,1,$000
 dn ___,0,$E00
 dn E_3,1,$000
 dn ___,0,$000
 dn ___,0,$E00
 dn E_3,1,$113
 dn D_3,1,$000
 dn ___,0,$E00
 dn ___,0,$000
 dn ___,0,$000
 dn E_3,1,$000
 dn ___,0,$E00
 dn ___,0,$000
 dn ___,0,$000
 dn ___,0,$000
 dn ___,0,$000
 dn E_3,1,$000
 dn ___,0,$E00
 dn E_3,1,$000
 dn ___,0,$000
 dn ___,0,$E00
 dn E_3,1,$113
 dn D_3,1,$000
 dn ___,0,$E00
 dn D_3,1,$000
 dn ___,0,$E00
 dn E_3,1,$000
 dn ___,0,$E00
 dn ___,0,$000
 dn ___,0,$000
 dn ___,0,$000
 dn ___,0,$000
 dn E_3,1,$000
 dn ___,0,$E00
 dn E_3,1,$000
 dn ___,0,$000
 dn ___,0,$E00
 dn E_3,1,$113
 dn D_3,1,$000
 dn ___,0,$E00
 dn ___,0,$000
 dn ___,0,$000
 dn E_3,1,$000
 dn ___,0,$E00
 dn ___,0,$000
 dn ___,0,$000
 dn ___,0,$000
 dn ___,0,$000
 dn E_3,1,$000
 dn ___,0,$E00
 dn E_3,1,$000
 dn ___,0,$000
 dn ___,0,$20C
 dn ___,0,$000
 dn C_3,1,$000
 dn ___,0,$000
 dn ___,0,$000
 dn ___,0,$000

P11:
 dn G_6,1,$000
 dn ___,0,$000
 dn ___,0,$000
 dn ___,0,$000
 dn G_6,1,$000
 dn ___,0,$000
 dn ___,0,$000
 dn ___,0,$000
 dn G_6,1,$000
 dn ___,0,$000
 dn ___,0,$000
 dn ___,0,$000
 dn G_6,1,$000
 dn ___,0,$000
 dn ___,0,$000
 dn ___,0,$000
 dn G_6,1,$000
 dn ___,0,$000
 dn ___,0,$000
 dn ___,0,$000
 dn G_6,1,$000
 dn ___,0,$000
 dn ___,0,$000
 dn ___,0,$000
 dn G_6,1,$000
 dn ___,0,$000
 dn ___,0,$000
 dn ___,0,$000
 dn G_6,1,$000
 dn ___,0,$000
 dn ___,0,$000
 dn ___,0,$000
 dn G_6,1,$000
 dn ___,0,$000
 dn ___,0,$000
 dn ___,0,$000
 dn G_6,1,$000
 dn ___,0,$000
 dn ___,0,$000
 dn ___,0,$000
 dn G_6,1,$000
 dn ___,0,$000
 dn ___,0,$000
 dn ___,0,$000
 dn G_6,1,$000
 dn ___,0,$000
 dn ___,0,$000
 dn ___,0,$000
 dn G_6,1,$000
 dn ___,0,$000
 dn ___,0,$000
 dn ___,0,$000
 dn G_6,1,$000
 dn ___,0,$000
 dn ___,0,$000
 dn ___,0,$000
 dn G_6,1,$000
 dn ___,0,$000
 dn G_6,1,$000
 dn G_6,1,$000
 dn G_6,1,$000
 dn ___,0,$000
 dn ___,0,$000
 dn ___,0,$000

P12:
 dn E_4,5,$000
 dn ___,0,$000
 dn D_4,5,$000
 dn ___,0,$000
 dn ___,0,$000
 dn E_4,5,$000
 dn ___,0,$000
 dn F_4,5,$000
 dn ___,0,$000
 dn C_4,5,$000
 dn ___,0,$000
 dn E_4,5,$000
 dn ___,0,$000
 dn D_4,5,$000
 dn ___,0,$000
 dn ___,0,$000
 dn E_4,5,$000
 dn ___,0,$000
 dn D_4,5,$000
 dn ___,0,$000
 dn ___,0,$000
 dn E_4,5,$000
 dn G_4,5,$000
 dn ___,0,$000
 dn F#4,5,$000
 dn ___,0,$000
 dn ___,0,$000
 dn ___,0,$000
 dn D_4,5,$C0D
 dn ___,0,$000
 dn ___,0,$000
 dn ___,0,$000
 dn E_4,5,$000
 dn ___,0,$000
 dn D_4,5,$000
 dn ___,0,$000
 dn ___,0,$000
 dn E_4,5,$000
 dn ___,0,$000
 dn F_4,5,$000
 dn ___,0,$000
 dn C_4,5,$000
 dn ___,0,$000
 dn E_4,5,$000
 dn ___,0,$000
 dn D_4,5,$000
 dn ___,0,$000
 dn ___,0,$000
 dn E_4,5,$000
 dn ___,0,$000
 dn D_4,5,$000
 dn ___,0,$000
 dn ___,0,$000
 dn E_4,5,$000
 dn ___,0,$000
 dn ___,0,$000
 dn E_4,5,$000
 dn ___,0,$000
 dn E_4,5,$E00
 dn E_4,5,$206
 dn E_4,5,$E00
 dn E_4,5,$207
 dn E_4,5,$205
 dn E_4,5,$207

P13:
 dn E_5,1,$000
 dn ___,0,$000
 dn ___,0,$000
 dn ___,0,$000
 dn ___,0,$000
 dn ___,0,$000
 dn ___,0,$000
 dn ___,0,$000
 dn A_4,1,$000
 dn ___,0,$000
 dn ___,0,$000
 dn ___,0,$000
 dn G_4,1,$000
 dn ___,0,$000
 dn ___,0,$000
 dn ___,0,$000
 dn D_5,1,$000
 dn ___,0,$000
 dn ___,0,$000
 dn ___,0,$000
 dn ___,0,$000
 dn ___,0,$000
 dn G_5,1,$000
 dn ___,0,$000
 dn F#5,1,$000
 dn ___,0,$000
 dn ___,0,$000
 dn ___,0,$000
 dn ___,0,$000
 dn ___,0,$000
 dn ___,0,$000
 dn ___,0,$000
 dn E_5,1,$000
 dn ___,0,$E00
 dn C_5,1,$000
 dn ___,0,$E00
 dn F#4,1,$000
 dn ___,0,$E00
 dn ___,0,$000
 dn F_4,1,$C07
 dn ___,0,$E00
 dn C_5,1,$C07
 dn G_5,1,$000
 dn ___,0,$E00
 dn F#5,1,$000
 dn ___,0,$E00
 dn D_5,1,$000
 dn ___,0,$E00
 dn E_5,1,$000
 dn ___,0,$E00
 dn C_5,1,$000
 dn ___,0,$E00
 dn F#4,1,$000
 dn ___,0,$E00
 dn ___,0,$000
 dn F_4,1,$C07
 dn ___,0,$E00
 dn C_5,1,$C07
 dn G_5,1,$000
 dn ___,0,$E00
 dn F#5,1,$000
 dn ___,0,$E00
 dn F#5,1,$000
 dn ___,0,$E00

P14:
 dn E_3,1,$000
 dn ___,0,$E00
 dn ___,0,$000
 dn ___,0,$000
 dn ___,0,$000
 dn ___,0,$000
 dn E_3,1,$000
 dn ___,0,$E00
 dn E_3,1,$000
 dn ___,0,$000
 dn ___,0,$E00
 dn E_3,1,$113
 dn D_3,1,$000
 dn ___,0,$E00
 dn ___,0,$000
 dn ___,0,$000
 dn E_3,1,$000
 dn ___,0,$E00
 dn ___,0,$000
 dn ___,0,$000
 dn ___,0,$000
 dn ___,0,$000
 dn G_3,1,$000
 dn ___,0,$000
 dn F#3,1,$000
 dn ___,0,$000
 dn ___,0,$226
 dn ___,0,$000
 dn D_3,1,$000
 dn ___,0,$000
 dn ___,0,$000
 dn ___,0,$000
 dn E_3,1,$000
 dn ___,0,$E00
 dn C_3,1,$000
 dn ___,0,$E00
 dn ___,0,$000
 dn ___,0,$000
 dn E_3,1,$000
 dn ___,0,$E00
 dn E_3,1,$000
 dn ___,0,$000
 dn ___,0,$E00
 dn E_3,1,$113
 dn D_3,1,$000
 dn ___,0,$E00
 dn ___,0,$000
 dn ___,0,$000
 dn E_3,1,$000
 dn ___,0,$E00
 dn C_3,1,$000
 dn ___,0,$E00
 dn ___,0,$000
 dn ___,0,$000
 dn E_3,1,$000
 dn ___,0,$E00
 dn E_3,1,$000
 dn ___,0,$000
 dn ___,0,$20C
 dn ___,0,$000
 dn C_3,1,$000
 dn ___,0,$000
 dn ___,0,$000
 dn ___,0,$000

P16:
 dn E_4,5,$000
 dn ___,0,$000
 dn D_4,5,$000
 dn ___,0,$000
 dn ___,0,$000
 dn E_4,5,$000
 dn ___,0,$000
 dn F_4,5,$000
 dn ___,0,$000
 dn C_4,5,$000
 dn ___,0,$000
 dn E_4,5,$000
 dn ___,0,$000
 dn D_4,5,$000
 dn ___,0,$000
 dn ___,0,$000
 dn E_4,5,$000
 dn ___,0,$000
 dn D_4,5,$000
 dn ___,0,$000
 dn ___,0,$000
 dn E_4,5,$000
 dn ___,0,$000
 dn F_4,5,$000
 dn F#4,5,$000
 dn ___,0,$E00
 dn F#4,5,$000
 dn ___,0,$E00
 dn E_4,5,$000
 dn ___,0,$E00
 dn F#4,5,$000
 dn ___,0,$22C
 dn E_4,5,$000
 dn ___,0,$000
 dn D_4,5,$000
 dn ___,0,$000
 dn ___,0,$000
 dn E_4,5,$000
 dn ___,0,$000
 dn F_4,5,$000
 dn ___,0,$000
 dn C_4,5,$000
 dn ___,0,$000
 dn E_4,5,$000
 dn ___,0,$000
 dn D_4,5,$000
 dn ___,0,$000
 dn ___,0,$000
 dn E_4,5,$000
 dn ___,0,$000
 dn D_4,5,$000
 dn ___,0,$000
 dn ___,0,$000
 dn E_4,5,$000
 dn ___,0,$000
 dn ___,0,$000
 dn E_4,5,$000
 dn ___,0,$000
 dn E_4,5,$E00
 dn E_4,5,$206
 dn E_4,5,$E00
 dn E_4,5,$207
 dn E_4,5,$205
 dn E_4,5,$207

P17:
 dn E_5,1,$000
 dn ___,0,$000
 dn ___,0,$000
 dn ___,0,$000
 dn ___,0,$000
 dn ___,0,$000
 dn ___,0,$000
 dn ___,0,$000
 dn A_4,1,$000
 dn ___,0,$000
 dn ___,0,$000
 dn ___,0,$000
 dn G_4,1,$000
 dn ___,0,$000
 dn ___,0,$000
 dn ___,0,$000
 dn D_5,1,$000
 dn ___,0,$000
 dn ___,0,$000
 dn ___,0,$000
 dn ___,0,$000
 dn ___,0,$000
 dn G_5,1,$000
 dn ___,0,$000
 dn F#5,1,$000
 dn ___,0,$E00
 dn F#5,1,$000
 dn ___,0,$E00
 dn E_5,2,$000
 dn ___,0,$E00
 dn F#5,1,$000
 dn ___,0,$22C
 dn E_5,1,$000
 dn ___,0,$E00
 dn C_5,1,$000
 dn ___,0,$E00
 dn F#4,1,$000
 dn ___,0,$E00
 dn ___,0,$000
 dn F_4,1,$C07
 dn ___,0,$E00
 dn C_5,1,$C07
 dn G_5,1,$000
 dn ___,0,$E00
 dn F#5,1,$000
 dn ___,0,$E00
 dn D_5,1,$000
 dn ___,0,$E00
 dn E_5,1,$000
 dn ___,0,$E00
 dn C_5,1,$000
 dn ___,0,$E00
 dn F#4,1,$000
 dn ___,0,$E00
 dn ___,0,$000
 dn F_4,1,$C07
 dn ___,0,$E00
 dn C_5,1,$C07
 dn G_5,1,$000
 dn ___,0,$E00
 dn F#5,1,$000
 dn ___,0,$E00
 dn F#5,1,$000
 dn ___,0,$E00

P18:
 dn E_3,1,$000
 dn ___,0,$E00
 dn ___,0,$000
 dn ___,0,$000
 dn ___,0,$000
 dn ___,0,$000
 dn E_3,1,$000
 dn ___,0,$E00
 dn E_3,1,$000
 dn ___,0,$000
 dn ___,0,$E00
 dn E_3,1,$113
 dn D_3,1,$000
 dn ___,0,$E00
 dn ___,0,$000
 dn ___,0,$000
 dn E_3,1,$000
 dn ___,0,$E00
 dn ___,0,$000
 dn ___,0,$000
 dn ___,0,$000
 dn ___,0,$000
 dn E_3,1,$000
 dn F_4,1,$000
 dn F#3,1,$116
 dn ___,0,$E00
 dn F#3,1,$000
 dn ___,0,$E00
 dn E_3,1,$000
 dn ___,0,$E00
 dn F#3,1,$000
 dn ___,0,$22C
 dn E_3,1,$000
 dn ___,0,$E00
 dn ___,0,$000
 dn ___,0,$000
 dn ___,0,$000
 dn ___,0,$000
 dn E_3,1,$000
 dn ___,0,$E00
 dn E_3,1,$000
 dn ___,0,$000
 dn ___,0,$E00
 dn E_3,1,$113
 dn D_3,1,$000
 dn ___,0,$E00
 dn ___,0,$000
 dn ___,0,$000
 dn E_3,1,$000
 dn ___,0,$E00
 dn ___,0,$000
 dn ___,0,$000
 dn ___,0,$000
 dn ___,0,$000
 dn E_3,1,$000
 dn ___,0,$E00
 dn E_3,1,$000
 dn ___,0,$000
 dn ___,0,$20C
 dn ___,0,$000
 dn C_3,1,$000
 dn ___,0,$000
 dn ___,0,$000
 dn ___,0,$000

P20:
 dn C_4,11,$C04
 dn ___,0,$000
 dn ___,0,$000
 dn ___,0,$000
 dn ___,0,$000
 dn ___,0,$000
 dn ___,0,$000
 dn ___,0,$000
 dn ___,0,$000
 dn ___,0,$000
 dn ___,0,$000
 dn ___,0,$000
 dn ___,0,$000
 dn ___,0,$000
 dn ___,0,$000
 dn ___,0,$000
 dn E_5,10,$C04
 dn ___,0,$000
 dn ___,0,$000
 dn ___,0,$000
 dn E_5,10,$C04
 dn ___,0,$000
 dn ___,0,$000
 dn ___,0,$000
 dn E_5,10,$C04
 dn ___,0,$000
 dn ___,0,$000
 dn ___,0,$000
 dn C_4,11,$C04
 dn ___,0,$000
 dn ___,0,$000
 dn ___,0,$000
 dn E_5,11,$C04
 dn ___,0,$000
 dn ___,0,$000
 dn ___,0,$000
 dn ___,0,$000
 dn ___,0,$000
 dn ___,0,$000
 dn ___,0,$000
 dn ___,0,$000
 dn ___,0,$000
 dn ___,0,$000
 dn ___,0,$000
 dn ___,0,$000
 dn ___,0,$000
 dn ___,0,$000
 dn ___,0,$000
 dn E_5,10,$C04
 dn ___,0,$000
 dn ___,0,$000
 dn ___,0,$000
 dn E_5,10,$C04
 dn ___,0,$000
 dn ___,0,$000
 dn ___,0,$000
 dn E_5,10,$C04
 dn ___,0,$000
 dn ___,0,$000
 dn ___,0,$000
 dn C_4,11,$C04
 dn ___,0,$000
 dn ___,0,$000
 dn ___,0,$000

P21:
 dn ___,0,$000
 dn ___,0,$000
 dn ___,0,$000
 dn ___,0,$000
 dn ___,0,$000
 dn ___,0,$000
 dn ___,0,$000
 dn ___,0,$000
 dn ___,0,$000
 dn ___,0,$000
 dn ___,0,$000
 dn ___,0,$000
 dn ___,0,$000
 dn ___,0,$000
 dn ___,0,$000
 dn ___,0,$000
 dn E_5,9,$000
 dn ___,0,$000
 dn D_5,9,$000
 dn ___,0,$000
 dn E_5,9,$000
 dn ___,0,$000
 dn D_5,9,$000
 dn ___,0,$000
 dn F#5,9,$000
 dn ___,0,$000
 dn E_5,9,$000
 dn ___,0,$000
 dn G_5,9,$000
 dn ___,0,$000
 dn ___,0,$000
 dn ___,0,$000
 dn E_4,9,$000
 dn ___,0,$000
 dn ___,0,$000
 dn ___,0,$000
 dn D_4,9,$000
 dn ___,0,$000
 dn ___,0,$000
 dn ___,0,$000
 dn C_4,9,$000
 dn ___,0,$000
 dn ___,0,$000
 dn ___,0,$000
 dn D#4,9,$000
 dn ___,0,$000
 dn ___,0,$000
 dn ___,0,$000
 dn E_5,9,$000
 dn ___,0,$000
 dn D_5,9,$000
 dn ___,0,$000
 dn E_5,9,$000
 dn ___,0,$000
 dn D_5,9,$000
 dn ___,0,$000
 dn F#5,9,$000
 dn ___,0,$000
 dn G_4,9,$213
 dn ___,0,$000
 dn D_4,9,$000
 dn ___,0,$000
 dn ___,0,$000
 dn ___,0,$000

P22:
 dn E_3,1,$000
 dn ___,0,$E00
 dn ___,0,$000
 dn ___,0,$000
 dn E_3,1,$000
 dn ___,0,$E00
 dn ___,0,$000
 dn ___,0,$000
 dn E_3,1,$000
 dn ___,0,$21C
 dn ___,0,$E00
 dn ___,0,$000
 dn E_3,1,$000
 dn ___,0,$E00
 dn ___,0,$000
 dn ___,0,$000
 dn E_3,1,$000
 dn ___,0,$216
 dn D_3,1,$000
 dn ___,0,$000
 dn E_3,1,$000
 dn ___,0,$000
 dn D_3,1,$000
 dn ___,0,$114
 dn F#3,1,$000
 dn ___,0,$000
 dn E_3,1,$000
 dn ___,0,$000
 dn G_3,1,$000
 dn ___,0,$000
 dn ___,0,$000
 dn ___,0,$E00
 dn E_3,1,$000
 dn ___,0,$000
 dn ___,0,$000
 dn ___,0,$000
 dn D_3,1,$000
 dn ___,0,$000
 dn ___,0,$000
 dn ___,0,$000
 dn C_3,1,$000
 dn ___,0,$000
 dn ___,0,$11D
 dn ___,0,$000
 dn D#3,1,$000
 dn ___,0,$000
 dn ___,0,$000
 dn ___,0,$E00
 dn E_3,1,$000
 dn ___,0,$216
 dn D_3,1,$000
 dn ___,0,$000
 dn E_3,1,$000
 dn ___,0,$000
 dn D_3,1,$000
 dn ___,0,$114
 dn F#3,1,$000
 dn ___,0,$000
 dn G_3,1,$213
 dn ___,0,$000
 dn D_3,1,$000
 dn ___,0,$000
 dn ___,0,$000
 dn ___,0,$000

P23:
 dn G_6,1,$000
 dn ___,0,$000
 dn ___,0,$000
 dn ___,0,$000
 dn E_7,2,$000
 dn ___,0,$038
 dn ___,0,$000
 dn ___,0,$000
 dn G_6,1,$000
 dn ___,0,$22A
 dn ___,0,$000
 dn ___,0,$000
 dn E_7,2,$000
 dn ___,0,$228
 dn ___,0,$000
 dn ___,0,$000
 dn G_6,1,$000
 dn ___,0,$000
 dn ___,0,$000
 dn ___,0,$000
 dn G_6,1,$000
 dn ___,0,$000
 dn ___,0,$000
 dn ___,0,$000
 dn G_6,1,$000
 dn ___,0,$000
 dn ___,0,$000
 dn ___,0,$000
 dn G_6,1,$000
 dn ___,0,$000
 dn ___,0,$000
 dn ___,0,$000
 dn G_6,1,$000
 dn ___,0,$000
 dn ___,0,$000
 dn ___,0,$000
 dn G_6,1,$000
 dn ___,0,$000
 dn ___,0,$000
 dn ___,0,$000
 dn G_6,1,$000
 dn ___,0,$000
 dn ___,0,$000
 dn ___,0,$000
 dn G_6,1,$000
 dn ___,0,$000
 dn ___,0,$000
 dn ___,0,$000
 dn G_6,1,$000
 dn ___,0,$000
 dn ___,0,$000
 dn ___,0,$000
 dn G_6,1,$000
 dn ___,0,$000
 dn ___,0,$000
 dn ___,0,$000
 dn G_6,1,$000
 dn ___,0,$000
 dn ___,0,$000
 dn ___,0,$000
 dn G_6,1,$000
 dn ___,0,$000
 dn ___,0,$000
 dn ___,0,$000

P24:
 dn E_4,11,$C04
 dn ___,0,$000
 dn ___,0,$000
 dn ___,0,$000
 dn ___,0,$000
 dn ___,0,$000
 dn ___,0,$000
 dn ___,0,$000
 dn ___,0,$000
 dn ___,0,$000
 dn ___,0,$000
 dn ___,0,$000
 dn ___,0,$000
 dn ___,0,$000
 dn ___,0,$000
 dn ___,0,$000
 dn E_5,10,$C04
 dn ___,0,$000
 dn ___,0,$000
 dn ___,0,$000
 dn E_5,10,$C04
 dn ___,0,$000
 dn ___,0,$000
 dn ___,0,$000
 dn E_5,10,$C04
 dn ___,0,$000
 dn ___,0,$000
 dn ___,0,$000
 dn C_4,11,$C04
 dn ___,0,$000
 dn ___,0,$000
 dn ___,0,$000
 dn E_5,11,$C04
 dn ___,0,$000
 dn ___,0,$000
 dn ___,0,$000
 dn ___,0,$000
 dn ___,0,$000
 dn ___,0,$000
 dn ___,0,$000
 dn ___,0,$000
 dn ___,0,$000
 dn ___,0,$000
 dn ___,0,$000
 dn ___,0,$000
 dn ___,0,$000
 dn ___,0,$000
 dn ___,0,$000
 dn E_5,10,$C04
 dn ___,0,$000
 dn ___,0,$000
 dn ___,0,$000
 dn E_5,10,$C04
 dn ___,0,$000
 dn ___,0,$000
 dn ___,0,$000
 dn E_5,10,$C04
 dn ___,0,$000
 dn ___,0,$000
 dn ___,0,$000
 dn C_4,11,$C04
 dn ___,0,$000
 dn ___,0,$000
 dn ___,0,$000

P25:
 dn E_4,9,$000
 dn ___,0,$000
 dn E_4,9,$000
 dn ___,0,$000
 dn D_4,9,$000
 dn ___,0,$000
 dn D_4,9,$000
 dn ___,0,$000
 dn E_4,9,$000
 dn ___,0,$000
 dn E_4,9,$000
 dn ___,0,$000
 dn D_4,9,$000
 dn ___,0,$000
 dn ___,0,$000
 dn ___,0,$000
 dn E_5,9,$000
 dn ___,0,$000
 dn D_5,9,$000
 dn ___,0,$000
 dn E_5,9,$000
 dn ___,0,$000
 dn D_5,9,$000
 dn ___,0,$000
 dn F#5,9,$000
 dn ___,0,$000
 dn E_5,9,$000
 dn ___,0,$000
 dn G_5,9,$000
 dn ___,0,$000
 dn ___,0,$000
 dn ___,0,$000
 dn E_4,9,$000
 dn ___,0,$000
 dn ___,0,$000
 dn ___,0,$000
 dn D_4,9,$000
 dn ___,0,$000
 dn ___,0,$000
 dn ___,0,$000
 dn C_4,9,$000
 dn ___,0,$000
 dn ___,0,$000
 dn ___,0,$000
 dn D#4,9,$000
 dn ___,0,$000
 dn ___,0,$000
 dn ___,0,$000
 dn E_5,9,$000
 dn ___,0,$000
 dn D_5,9,$000
 dn ___,0,$000
 dn E_5,9,$000
 dn ___,0,$000
 dn D_5,9,$000
 dn ___,0,$000
 dn F#5,9,$000
 dn ___,0,$000
 dn G_4,9,$213
 dn ___,0,$000
 dn D_4,9,$000
 dn ___,0,$000
 dn ___,0,$000
 dn ___,0,$000

P26:
 dn E_3,1,$000
 dn ___,0,$E00
 dn E_3,1,$000
 dn ___,0,$E00
 dn D_3,1,$000
 dn ___,0,$E00
 dn D_3,1,$000
 dn ___,0,$E00
 dn E_3,1,$000
 dn ___,0,$E00
 dn E_3,1,$000
 dn ___,0,$E00
 dn D_3,1,$000
 dn ___,0,$000
 dn ___,0,$000
 dn ___,0,$E00
 dn E_3,1,$000
 dn ___,0,$216
 dn D_3,1,$000
 dn ___,0,$000
 dn E_3,1,$000
 dn ___,0,$000
 dn D_3,1,$000
 dn ___,0,$114
 dn F#3,1,$000
 dn ___,0,$000
 dn E_3,1,$000
 dn ___,0,$000
 dn G_3,1,$000
 dn ___,0,$000
 dn ___,0,$000
 dn ___,0,$E00
 dn E_3,1,$000
 dn ___,0,$000
 dn ___,0,$000
 dn ___,0,$000
 dn D_3,1,$000
 dn ___,0,$000
 dn ___,0,$000
 dn ___,0,$000
 dn C_3,1,$000
 dn ___,0,$000
 dn ___,0,$11D
 dn ___,0,$000
 dn D#3,1,$000
 dn ___,0,$000
 dn ___,0,$000
 dn ___,0,$E00
 dn E_3,1,$000
 dn ___,0,$216
 dn D_3,1,$000
 dn ___,0,$000
 dn E_3,1,$000
 dn ___,0,$000
 dn D_3,1,$000
 dn ___,0,$114
 dn F#3,1,$000
 dn ___,0,$000
 dn G_3,1,$213
 dn ___,0,$000
 dn D_3,1,$000
 dn ___,0,$000
 dn ___,0,$000
 dn ___,0,$000

P28:
 dn E_4,11,$C04
 dn ___,0,$000
 dn ___,0,$000
 dn ___,0,$000
 dn ___,0,$000
 dn ___,0,$000
 dn ___,0,$000
 dn ___,0,$000
 dn ___,0,$000
 dn ___,0,$000
 dn ___,0,$000
 dn ___,0,$000
 dn ___,0,$000
 dn ___,0,$000
 dn ___,0,$000
 dn ___,0,$000
 dn E_5,10,$C04
 dn ___,0,$000
 dn ___,0,$000
 dn ___,0,$000
 dn E_5,10,$C04
 dn ___,0,$000
 dn ___,0,$000
 dn ___,0,$000
 dn E_5,10,$C04
 dn ___,0,$000
 dn ___,0,$000
 dn ___,0,$000
 dn C_4,11,$C04
 dn ___,0,$000
 dn ___,0,$000
 dn ___,0,$000
 dn E_5,11,$C04
 dn ___,0,$000
 dn ___,0,$000
 dn ___,0,$000
 dn ___,0,$000
 dn ___,0,$000
 dn ___,0,$000
 dn ___,0,$000
 dn ___,0,$000
 dn ___,0,$000
 dn ___,0,$000
 dn ___,0,$000
 dn ___,0,$000
 dn ___,0,$000
 dn ___,0,$000
 dn ___,0,$000
 dn ___,0,$000
 dn ___,0,$000
 dn ___,0,$000
 dn ___,0,$000
 dn ___,0,$000
 dn ___,0,$000
 dn ___,0,$000
 dn ___,0,$000
 dn ___,0,$000
 dn ___,0,$000
 dn ___,0,$000
 dn ___,0,$000
 dn F#5,10,$C04
 dn ___,0,$000
 dn ___,0,$000
 dn ___,0,$000

P29:
 dn E_4,9,$000
 dn ___,0,$000
 dn E_4,9,$000
 dn ___,0,$000
 dn D_4,9,$000
 dn ___,0,$000
 dn D_4,9,$000
 dn ___,0,$000
 dn E_4,9,$000
 dn ___,0,$000
 dn E_4,9,$000
 dn ___,0,$000
 dn F#4,9,$000
 dn ___,0,$000
 dn ___,0,$000
 dn ___,0,$E00
 dn E_4,9,$000
 dn ___,0,$000
 dn E_4,9,$000
 dn ___,0,$000
 dn D_4,9,$000
 dn ___,0,$000
 dn D_4,9,$000
 dn ___,0,$000
 dn E_4,9,$000
 dn ___,0,$000
 dn E_4,9,$000
 dn ___,0,$000
 dn F#4,9,$000
 dn ___,0,$000
 dn ___,0,$000
 dn ___,0,$E00
 dn E_4,9,$000
 dn ___,0,$000
 dn E_4,9,$000
 dn ___,0,$000
 dn E_4,9,$000
 dn ___,0,$000
 dn E_4,9,$000
 dn ___,0,$000
 dn E_4,9,$000
 dn ___,0,$000
 dn E_4,9,$000
 dn ___,0,$000
 dn E_4,9,$000
 dn ___,0,$000
 dn E_4,9,$000
 dn ___,0,$000
 dn E_4,9,$000
 dn ___,0,$000
 dn E_4,9,$000
 dn ___,0,$000
 dn E_4,9,$000
 dn ___,0,$000
 dn E_4,9,$000
 dn ___,0,$000
 dn D#4,9,$000
 dn ___,0,$000
 dn ___,0,$000
 dn ___,0,$000
 dn ___,0,$000
 dn ___,0,$000
 dn ___,0,$000
 dn ___,0,$000

P30:
 dn E_3,1,$000
 dn ___,0,$E00
 dn E_3,1,$000
 dn ___,0,$E00
 dn D_3,1,$000
 dn ___,0,$E00
 dn D_3,1,$000
 dn ___,0,$E00
 dn E_3,1,$000
 dn ___,0,$000
 dn E_3,1,$123
 dn ___,0,$E00
 dn F#3,1,$000
 dn ___,0,$000
 dn ___,0,$000
 dn ___,0,$E00
 dn E_3,1,$000
 dn ___,0,$E00
 dn E_3,1,$000
 dn ___,0,$E00
 dn D_3,1,$000
 dn ___,0,$E00
 dn D_3,1,$000
 dn ___,0,$E00
 dn E_3,1,$000
 dn ___,0,$000
 dn E_3,1,$123
 dn ___,0,$E00
 dn F#3,1,$000
 dn ___,0,$000
 dn ___,0,$000
 dn ___,0,$E00
 dn E_3,1,$000
 dn ___,0,$E00
 dn E_3,1,$000
 dn ___,0,$E00
 dn E_3,1,$000
 dn ___,0,$E00
 dn E_3,1,$000
 dn ___,0,$E00
 dn E_3,1,$000
 dn ___,0,$E00
 dn E_3,1,$000
 dn ___,0,$E00
 dn E_3,1,$000
 dn ___,0,$E00
 dn E_3,1,$000
 dn ___,0,$E00
 dn E_3,1,$000
 dn ___,0,$E00
 dn E_3,1,$000
 dn ___,0,$E00
 dn E_3,1,$000
 dn ___,0,$E00
 dn E_3,1,$000
 dn ___,0,$E00
 dn D#3,1,$000
 dn ___,0,$000
 dn ___,0,$000
 dn ___,0,$000
 dn D_3,1,$000
 dn ___,0,$000
 dn ___,0,$000
 dn ___,0,$127

P31:
 dn G_6,1,$000
 dn ___,0,$000
 dn ___,0,$000
 dn ___,0,$000
 dn G_6,1,$000
 dn ___,0,$000
 dn ___,0,$000
 dn ___,0,$000
 dn G_6,1,$000
 dn ___,0,$000
 dn ___,0,$000
 dn ___,0,$000
 dn E_7,2,$000
 dn ___,0,$038
 dn ___,0,$000
 dn ___,0,$000
 dn G_6,1,$000
 dn ___,0,$000
 dn ___,0,$000
 dn ___,0,$000
 dn G_6,1,$000
 dn ___,0,$000
 dn ___,0,$000
 dn ___,0,$000
 dn G_6,1,$000
 dn ___,0,$000
 dn ___,0,$000
 dn ___,0,$000
 dn E_7,2,$000
 dn ___,0,$228
 dn ___,0,$000
 dn ___,0,$000
 dn G_6,1,$000
 dn ___,0,$000
 dn ___,0,$000
 dn ___,0,$000
 dn G_6,1,$000
 dn ___,0,$000
 dn ___,0,$000
 dn ___,0,$000
 dn G_6,1,$000
 dn ___,0,$000
 dn ___,0,$000
 dn ___,0,$000
 dn E_7,2,$000
 dn ___,0,$038
 dn ___,0,$000
 dn ___,0,$000
 dn G_6,1,$000
 dn ___,0,$000
 dn ___,0,$000
 dn ___,0,$000
 dn G_6,1,$000
 dn ___,0,$000
 dn ___,0,$000
 dn ___,0,$000
 dn E_7,2,$000
 dn ___,0,$038
 dn ___,0,$000
 dn ___,0,$000
 dn E_7,2,$000
 dn ___,0,$228
 dn ___,0,$000
 dn ___,0,$000

P32:
 dn E_5,11,$C05
 dn ___,0,$000
 dn ___,0,$000
 dn ___,0,$000
 dn ___,0,$000
 dn ___,0,$000
 dn ___,0,$000
 dn ___,0,$000
 dn ___,0,$000
 dn ___,0,$000
 dn ___,0,$000
 dn ___,0,$000
 dn ___,0,$000
 dn ___,0,$000
 dn ___,0,$000
 dn ___,0,$000
 dn ___,0,$000
 dn ___,0,$000
 dn ___,0,$000
 dn ___,0,$000
 dn ___,0,$000
 dn ___,0,$000
 dn ___,0,$000
 dn ___,0,$000
 dn ___,0,$000
 dn ___,0,$000
 dn ___,0,$000
 dn ___,0,$000
 dn ___,0,$000
 dn ___,0,$000
 dn ___,0,$000
 dn ___,0,$000
 dn ___,0,$000
 dn ___,0,$000
 dn ___,0,$000
 dn ___,0,$000
 dn ___,0,$000
 dn ___,0,$000
 dn ___,0,$000
 dn ___,0,$000
 dn ___,0,$000
 dn ___,0,$000
 dn ___,0,$000
 dn ___,0,$000
 dn ___,0,$000
 dn ___,0,$000
 dn ___,0,$000
 dn ___,0,$000
 dn ___,0,$E00
 dn ___,0,$000
 dn ___,0,$000
 dn ___,0,$000
 dn ___,0,$000
 dn ___,0,$000
 dn ___,0,$000
 dn ___,0,$000
 dn ___,0,$000
 dn ___,0,$000
 dn ___,0,$000
 dn ___,0,$000
 dn ___,0,$000
 dn ___,0,$000
 dn ___,0,$000
 dn ___,0,$000

P33:
 dn E_6,5,$000
 dn G_6,5,$000
 dn B_7,5,$000
 dn E_7,5,$000
 dn G_7,5,$000
 dn G_7,5,$C0C
 dn G_7,5,$C0A
 dn G_7,5,$C08
 dn E_6,5,$000
 dn G_6,5,$000
 dn B_7,5,$000
 dn E_7,5,$000
 dn G_7,5,$000
 dn G_7,5,$C0C
 dn G_7,5,$C0A
 dn G_7,5,$C08
 dn D_6,5,$000
 dn F#6,5,$000
 dn A_6,5,$000
 dn E_7,5,$000
 dn F#7,5,$000
 dn F#7,5,$C0C
 dn F#7,5,$C0A
 dn F#7,5,$C08
 dn D_6,5,$000
 dn F#6,5,$000
 dn A_6,5,$000
 dn E_7,5,$000
 dn F#7,5,$000
 dn F#7,5,$C0C
 dn F#7,5,$C0A
 dn F#7,5,$C08
 dn C_6,5,$000
 dn F#6,5,$000
 dn A_6,5,$000
 dn D_7,5,$000
 dn E_7,5,$000
 dn E_7,5,$C0C
 dn E_7,5,$C0A
 dn E_7,5,$C08
 dn C_6,5,$000
 dn F#6,5,$000
 dn A_6,5,$000
 dn D_7,5,$000
 dn E_7,5,$000
 dn E_7,5,$C0C
 dn E_7,5,$C0A
 dn E_7,5,$C08
 dn D_6,5,$000
 dn E_6,5,$000
 dn F#6,5,$000
 dn G_6,5,$000
 dn D_7,5,$000
 dn ___,0,$C0C
 dn ___,0,$C0A
 dn ___,0,$C08
 dn E_7,5,$000
 dn C_7,5,$000
 dn D_7,5,$000
 dn E_6,5,$000
 dn D_7,5,$000
 dn ___,0,$E00
 dn E_6,5,$000
 dn ___,0,$E00

P34:
 dn E_3,1,$000
 dn ___,0,$000
 dn ___,0,$000
 dn ___,0,$000
 dn ___,0,$000
 dn ___,0,$000
 dn ___,0,$000
 dn ___,0,$000
 dn ___,0,$000
 dn ___,0,$000
 dn ___,0,$000
 dn ___,0,$000
 dn ___,0,$000
 dn ___,0,$000
 dn ___,0,$000
 dn ___,0,$000
 dn D_3,1,$000
 dn ___,0,$000
 dn ___,0,$000
 dn ___,0,$000
 dn ___,0,$000
 dn ___,0,$000
 dn ___,0,$000
 dn ___,0,$000
 dn ___,0,$000
 dn ___,0,$000
 dn ___,0,$000
 dn ___,0,$000
 dn ___,0,$000
 dn ___,0,$000
 dn ___,0,$000
 dn ___,0,$000
 dn C_3,1,$000
 dn ___,0,$000
 dn ___,0,$000
 dn ___,0,$000
 dn ___,0,$000
 dn ___,0,$000
 dn ___,0,$000
 dn ___,0,$000
 dn ___,0,$000
 dn ___,0,$000
 dn ___,0,$000
 dn ___,0,$000
 dn ___,0,$000
 dn ___,0,$000
 dn ___,0,$000
 dn ___,0,$000
 dn D_3,1,$000
 dn ___,0,$E00
 dn D_3,1,$000
 dn ___,0,$E00
 dn D_3,1,$000
 dn ___,0,$E00
 dn D_3,1,$000
 dn ___,0,$E00
 dn F#3,1,$000
 dn ___,0,$000
 dn ___,0,$000
 dn ___,0,$211
 dn D_3,1,$000
 dn ___,0,$000
 dn ___,0,$000
 dn ___,0,$000

P38:
 dn E_3,1,$000
 dn ___,0,$000
 dn ___,0,$000
 dn ___,0,$000
 dn ___,0,$000
 dn ___,0,$000
 dn ___,0,$000
 dn ___,0,$000
 dn ___,0,$000
 dn ___,0,$000
 dn ___,0,$000
 dn ___,0,$000
 dn ___,0,$000
 dn ___,0,$000
 dn ___,0,$000
 dn ___,0,$000
 dn D_3,1,$000
 dn ___,0,$000
 dn ___,0,$000
 dn ___,0,$000
 dn ___,0,$000
 dn ___,0,$000
 dn ___,0,$000
 dn ___,0,$000
 dn ___,0,$000
 dn ___,0,$000
 dn ___,0,$000
 dn ___,0,$000
 dn ___,0,$000
 dn ___,0,$000
 dn ___,0,$000
 dn ___,0,$000
 dn C_3,1,$000
 dn ___,0,$000
 dn ___,0,$000
 dn ___,0,$000
 dn ___,0,$000
 dn ___,0,$000
 dn ___,0,$000
 dn ___,0,$000
 dn ___,0,$000
 dn ___,0,$000
 dn ___,0,$000
 dn ___,0,$000
 dn ___,0,$000
 dn ___,0,$000
 dn ___,0,$000
 dn ___,0,$000
 dn D_3,1,$000
 dn ___,0,$E00
 dn ___,0,$000
 dn ___,0,$000
 dn D_3,1,$000
 dn ___,0,$E00
 dn ___,0,$000
 dn ___,0,$000
 dn D_3,1,$000
 dn ___,0,$000
 dn ___,0,$000
 dn ___,0,$000
 dn ___,0,$E00
 dn ___,0,$000
 dn ___,0,$000
 dn ___,0,$000

P39:
 dn G_6,1,$000
 dn ___,0,$000
 dn ___,0,$000
 dn ___,0,$000
 dn G_6,1,$000
 dn ___,0,$000
 dn ___,0,$000
 dn ___,0,$000
 dn G_6,1,$000
 dn ___,0,$000
 dn ___,0,$000
 dn ___,0,$000
 dn G_6,1,$000
 dn ___,0,$000
 dn ___,0,$000
 dn ___,0,$000
 dn G_6,1,$000
 dn ___,0,$000
 dn ___,0,$000
 dn ___,0,$000
 dn G_6,1,$000
 dn ___,0,$000
 dn ___,0,$000
 dn ___,0,$000
 dn G_6,1,$000
 dn ___,0,$000
 dn ___,0,$000
 dn ___,0,$000
 dn G_6,1,$000
 dn ___,0,$000
 dn ___,0,$000
 dn ___,0,$000
 dn G_6,1,$000
 dn ___,0,$000
 dn ___,0,$000
 dn ___,0,$000
 dn G_6,1,$000
 dn ___,0,$000
 dn ___,0,$000
 dn ___,0,$000
 dn G_6,1,$000
 dn ___,0,$000
 dn ___,0,$000
 dn ___,0,$000
 dn G_6,1,$000
 dn ___,0,$000
 dn ___,0,$000
 dn ___,0,$000
 dn G_6,1,$000
 dn ___,0,$000
 dn ___,0,$000
 dn ___,0,$000
 dn G_6,1,$000
 dn ___,0,$000
 dn ___,0,$000
 dn ___,0,$000
 dn G_6,1,$000
 dn ___,0,$000
 dn ___,0,$000
 dn ___,0,$000
 dn E_7,2,$000
 dn ___,0,$128
 dn ___,0,$000
 dn ___,0,$000

P40:
 dn E_5,6,$000
 dn ___,0,$000
 dn ___,0,$000
 dn ___,0,$000
 dn E_5,6,$000
 dn ___,0,$000
 dn ___,0,$000
 dn ___,0,$000
 dn E_5,6,$000
 dn ___,0,$000
 dn B_4,6,$000
 dn ___,0,$000
 dn G_5,6,$000
 dn ___,0,$000
 dn E_5,6,$000
 dn ___,0,$000
 dn D_5,6,$000
 dn ___,0,$000
 dn ___,0,$000
 dn ___,0,$000
 dn D_5,6,$000
 dn ___,0,$000
 dn ___,0,$000
 dn ___,0,$000
 dn D_5,2,$C0A
 dn ___,0,$000
 dn ___,0,$209
 dn ___,0,$000
 dn F#4,1,$000
 dn ___,0,$000
 dn ___,0,$000
 dn ___,0,$000
 dn C_5,6,$000
 dn ___,0,$000
 dn ___,0,$000
 dn ___,0,$000
 dn C_5,6,$000
 dn ___,0,$000
 dn ___,0,$000
 dn ___,0,$000
 dn C_5,1,$000
 dn ___,0,$000
 dn ___,0,$000
 dn ___,0,$000
 dn E_5,1,$000
 dn ___,0,$000
 dn ___,0,$000
 dn ___,0,$000
 dn D_5,6,$000
 dn ___,0,$000
 dn ___,0,$000
 dn ___,0,$000
 dn D_5,6,$000
 dn ___,0,$000
 dn ___,0,$000
 dn ___,0,$000
 dn D_5,1,$000
 dn ___,0,$000
 dn ___,0,$107
 dn ___,0,$000
 dn F#5,1,$000
 dn ___,0,$000
 dn ___,0,$000
 dn ___,0,$000

P42:
 dn E_3,1,$000
 dn ___,0,$000
 dn ___,0,$E00
 dn ___,0,$000
 dn E_3,1,$000
 dn ___,0,$000
 dn ___,0,$E00
 dn ___,0,$000
 dn E_3,1,$000
 dn ___,0,$000
 dn ___,0,$E00
 dn ___,0,$000
 dn F#3,1,$000
 dn ___,0,$000
 dn ___,0,$000
 dn ___,0,$000
 dn D_3,1,$000
 dn ___,0,$000
 dn ___,0,$E00
 dn ___,0,$000
 dn D_3,1,$000
 dn ___,0,$000
 dn ___,0,$E00
 dn ___,0,$000
 dn D_3,1,$000
 dn ___,0,$000
 dn ___,0,$209
 dn ___,0,$000
 dn F#3,1,$000
 dn ___,0,$000
 dn ___,0,$000
 dn ___,0,$000
 dn C_4,1,$000
 dn ___,0,$000
 dn ___,0,$E00
 dn ___,0,$000
 dn C_4,1,$000
 dn ___,0,$000
 dn ___,0,$E00
 dn ___,0,$000
 dn C_4,1,$000
 dn ___,0,$000
 dn ___,0,$000
 dn ___,0,$000
 dn E_4,1,$000
 dn ___,0,$000
 dn ___,0,$000
 dn ___,0,$000
 dn D_4,1,$000
 dn ___,0,$000
 dn ___,0,$E00
 dn ___,0,$000
 dn D_4,1,$000
 dn ___,0,$000
 dn ___,0,$E00
 dn ___,0,$000
 dn D_4,1,$000
 dn ___,0,$000
 dn ___,0,$107
 dn ___,0,$000
 dn F#4,1,$000
 dn ___,0,$000
 dn ___,0,$000
 dn ___,0,$000

P44:
 dn E_5,6,$000
 dn ___,0,$000
 dn ___,0,$000
 dn ___,0,$000
 dn E_5,6,$000
 dn ___,0,$000
 dn ___,0,$000
 dn ___,0,$000
 dn E_5,6,$000
 dn ___,0,$000
 dn B_4,6,$000
 dn ___,0,$000
 dn G_5,6,$000
 dn ___,0,$000
 dn E_5,6,$000
 dn ___,0,$000
 dn D_5,6,$000
 dn ___,0,$000
 dn ___,0,$000
 dn ___,0,$000
 dn D_5,6,$000
 dn ___,0,$000
 dn ___,0,$000
 dn ___,0,$000
 dn D_5,2,$C0A
 dn ___,0,$000
 dn ___,0,$209
 dn ___,0,$000
 dn F#4,1,$000
 dn ___,0,$000
 dn ___,0,$000
 dn ___,0,$000
 dn C_5,6,$000
 dn ___,0,$000
 dn A_4,6,$000
 dn ___,0,$000
 dn C_5,6,$000
 dn ___,0,$000
 dn G_4,6,$000
 dn ___,0,$000
 dn C_5,6,$000
 dn ___,0,$000
 dn D_5,6,$000
 dn ___,0,$000
 dn E_5,6,$000
 dn ___,0,$000
 dn F#5,2,$000
 dn ___,0,$207
 dn D_5,6,$000
 dn ___,0,$000
 dn B_4,6,$000
 dn ___,0,$000
 dn D_5,6,$000
 dn ___,0,$000
 dn A_4,6,$000
 dn ___,0,$000
 dn D_5,6,$000
 dn ___,0,$000
 dn E_5,6,$000
 dn ___,0,$000
 dn G_5,2,$000
 dn ___,0,$000
 dn ___,0,$000
 dn ___,0,$000

P45:
 dn E_6,5,$000
 dn G_6,5,$000
 dn B_7,5,$000
 dn E_7,5,$000
 dn G_7,5,$000
 dn G_7,5,$C0C
 dn G_7,5,$C0A
 dn G_7,5,$C08
 dn E_6,5,$000
 dn G_6,5,$000
 dn B_7,5,$000
 dn E_7,5,$000
 dn G_7,5,$000
 dn G_7,5,$C0C
 dn G_7,5,$C0A
 dn G_7,5,$C08
 dn D_6,5,$000
 dn F#6,5,$000
 dn A_6,5,$000
 dn E_7,5,$000
 dn F#7,5,$000
 dn F#7,5,$C0C
 dn F#7,5,$C0A
 dn F#7,5,$C08
 dn D_6,5,$000
 dn F#6,5,$000
 dn A_6,5,$000
 dn E_7,5,$000
 dn F#7,5,$000
 dn F#7,5,$C0C
 dn F#7,5,$C0A
 dn F#7,5,$C08
 dn C_6,5,$000
 dn F#6,5,$000
 dn A_6,5,$000
 dn D_7,5,$000
 dn E_7,5,$000
 dn E_7,5,$C0C
 dn E_7,5,$C0A
 dn E_7,5,$C08
 dn C_6,5,$000
 dn F#6,5,$000
 dn A_6,5,$000
 dn D_7,5,$000
 dn E_7,5,$000
 dn E_7,5,$C0C
 dn E_7,5,$C0A
 dn E_7,5,$C08
 dn D_6,5,$000
 dn E_6,5,$000
 dn F#6,5,$000
 dn G_6,5,$000
 dn D_7,5,$000
 dn ___,0,$C0C
 dn ___,0,$C0A
 dn ___,0,$C08
 dn E_7,5,$000
 dn C_7,5,$000
 dn D_7,5,$000
 dn E_6,5,$000
 dn G_6,5,$000
 dn G_7,5,$C0C
 dn G_7,5,$C0A
 dn G_7,5,$C08

P46:
 dn E_3,1,$000
 dn ___,0,$000
 dn ___,0,$E00
 dn ___,0,$000
 dn E_3,1,$000
 dn ___,0,$000
 dn ___,0,$E00
 dn ___,0,$000
 dn E_3,1,$000
 dn ___,0,$000
 dn ___,0,$E00
 dn ___,0,$000
 dn F#3,1,$000
 dn ___,0,$000
 dn ___,0,$000
 dn ___,0,$000
 dn D_3,1,$000
 dn ___,0,$000
 dn ___,0,$E00
 dn ___,0,$000
 dn D_3,1,$000
 dn ___,0,$000
 dn ___,0,$E00
 dn ___,0,$000
 dn D_3,1,$000
 dn ___,0,$000
 dn ___,0,$209
 dn ___,0,$000
 dn F#3,1,$000
 dn ___,0,$000
 dn ___,0,$000
 dn ___,0,$000
 dn C_4,1,$000
 dn ___,0,$000
 dn ___,0,$E00
 dn ___,0,$000
 dn C_4,1,$000
 dn ___,0,$000
 dn ___,0,$E00
 dn ___,0,$000
 dn C_4,1,$000
 dn ___,0,$000
 dn ___,0,$000
 dn ___,0,$000
 dn E_4,1,$000
 dn ___,0,$000
 dn ___,0,$000
 dn ___,0,$000
 dn D_4,1,$000
 dn ___,0,$000
 dn ___,0,$E00
 dn ___,0,$000
 dn D_4,1,$000
 dn ___,0,$000
 dn ___,0,$E00
 dn ___,0,$000
 dn D_4,1,$000
 dn ___,0,$000
 dn ___,0,$107
 dn ___,0,$000
 dn G_4,1,$000
 dn ___,0,$000
 dn ___,0,$000
 dn ___,0,$000

P48:
 dn E_5,2,$000
 dn ___,0,$000
 dn ___,0,$000
 dn ___,0,$000
 dn ___,0,$000
 dn ___,0,$000
 dn ___,0,$000
 dn ___,0,$000
 dn ___,0,$000
 dn ___,0,$000
 dn ___,0,$000
 dn ___,0,$000
 dn ___,0,$000
 dn ___,0,$000
 dn ___,0,$000
 dn ___,0,$000
 dn ___,0,$000
 dn ___,0,$E00
 dn ___,0,$000
 dn ___,0,$000
 dn ___,0,$000
 dn ___,0,$000
 dn ___,0,$000
 dn ___,0,$000
 dn ___,0,$000
 dn ___,0,$000
 dn ___,0,$000
 dn ___,0,$000
 dn ___,0,$000
 dn ___,0,$000
 dn ___,0,$000
 dn ___,0,$000
 dn ___,0,$000
 dn ___,0,$000
 dn ___,0,$000
 dn ___,0,$000
 dn ___,0,$000
 dn ___,0,$000
 dn ___,0,$000
 dn ___,0,$000
 dn ___,0,$000
 dn ___,0,$000
 dn ___,0,$000
 dn ___,0,$000
 dn ___,0,$000
 dn ___,0,$000
 dn ___,0,$000
 dn ___,0,$000
 dn ___,0,$000
 dn ___,0,$000
 dn ___,0,$000
 dn ___,0,$000
 dn ___,0,$000
 dn ___,0,$000
 dn ___,0,$000
 dn ___,0,$000
 dn ___,0,$000
 dn ___,0,$000
 dn ___,0,$000
 dn ___,0,$000
 dn ___,0,$000
 dn ___,0,$000
 dn ___,0,$000
 dn ___,0,$000

P49:
 dn E_7,5,$000
 dn E_7,5,$C0F
 dn E_7,5,$C0E
 dn E_7,5,$C0D
 dn E_7,5,$C0C
 dn E_7,5,$C0C
 dn E_7,5,$C0B
 dn E_7,5,$C0A
 dn E_7,5,$C08
 dn E_7,5,$C07
 dn E_7,5,$C06
 dn E_7,5,$C05
 dn E_7,5,$C05
 dn E_7,5,$C04
 dn E_7,5,$C03
 dn E_7,5,$C02
 dn E_7,5,$C02
 dn E_7,5,$C01
 dn ___,0,$000
 dn ___,0,$000
 dn ___,0,$000
 dn ___,0,$000
 dn ___,0,$000
 dn ___,0,$000
 dn ___,0,$000
 dn ___,0,$000
 dn ___,0,$000
 dn ___,0,$000
 dn ___,0,$000
 dn ___,0,$000
 dn ___,0,$000
 dn ___,0,$000
 dn ___,0,$000
 dn ___,0,$000
 dn ___,0,$000
 dn ___,0,$000
 dn ___,0,$000
 dn ___,0,$000
 dn ___,0,$000
 dn ___,0,$000
 dn ___,0,$000
 dn ___,0,$000
 dn ___,0,$000
 dn ___,0,$000
 dn ___,0,$000
 dn ___,0,$000
 dn ___,0,$000
 dn ___,0,$000
 dn ___,0,$000
 dn ___,0,$000
 dn ___,0,$000
 dn ___,0,$000
 dn ___,0,$000
 dn ___,0,$000
 dn ___,0,$000
 dn ___,0,$000
 dn ___,0,$000
 dn ___,0,$000
 dn ___,0,$000
 dn ___,0,$000
 dn ___,0,$000
 dn ___,0,$000
 dn ___,0,$000
 dn ___,0,$000

P50:
 dn E_3,1,$000
 dn ___,0,$000
 dn ___,0,$000
 dn ___,0,$000
 dn ___,0,$000
 dn ___,0,$000
 dn ___,0,$000
 dn ___,0,$000
 dn ___,0,$000
 dn ___,0,$000
 dn ___,0,$000
 dn ___,0,$000
 dn ___,0,$000
 dn ___,0,$000
 dn ___,0,$000
 dn ___,0,$000
 dn ___,0,$000
 dn ___,0,$E00
 dn ___,0,$000
 dn ___,0,$000
 dn ___,0,$000
 dn ___,0,$000
 dn ___,0,$000
 dn ___,0,$000
 dn ___,0,$000
 dn ___,0,$000
 dn ___,0,$000
 dn ___,0,$000
 dn ___,0,$000
 dn ___,0,$000
 dn ___,0,$000
 dn ___,0,$000
 dn ___,0,$000
 dn ___,0,$000
 dn ___,0,$000
 dn ___,0,$000
 dn ___,0,$000
 dn ___,0,$000
 dn ___,0,$000
 dn ___,0,$000
 dn ___,0,$000
 dn ___,0,$000
 dn ___,0,$000
 dn ___,0,$000
 dn ___,0,$000
 dn ___,0,$000
 dn ___,0,$000
 dn ___,0,$000
 dn ___,0,$000
 dn ___,0,$000
 dn ___,0,$000
 dn ___,0,$000
 dn ___,0,$000
 dn ___,0,$000
 dn ___,0,$000
 dn ___,0,$000
 dn ___,0,$000
 dn ___,0,$000
 dn ___,0,$000
 dn ___,0,$000
 dn ___,0,$000
 dn ___,0,$000
 dn ___,0,$000
 dn ___,0,$000

P51:
 dn G_6,1,$C0F
 dn ___,0,$000
 dn ___,0,$000
 dn ___,0,$000
 dn G_6,1,$C0C
 dn ___,0,$000
 dn ___,0,$000
 dn ___,0,$000
 dn G_6,1,$C09
 dn ___,0,$000
 dn ___,0,$000
 dn ___,0,$000
 dn G_6,1,$C07
 dn ___,0,$000
 dn ___,0,$000
 dn ___,0,$000
 dn G_6,1,$C05
 dn ___,0,$000
 dn ___,0,$000
 dn ___,0,$000
 dn G_6,1,$C05
 dn ___,0,$000
 dn ___,0,$000
 dn ___,0,$000
 dn G_6,1,$C05
 dn ___,0,$000
 dn ___,0,$000
 dn ___,0,$000
 dn ___,0,$000
 dn ___,0,$000
 dn ___,0,$000
 dn ___,0,$000
 dn ___,0,$000
 dn ___,0,$000
 dn ___,0,$000
 dn ___,0,$000
 dn ___,0,$000
 dn ___,0,$000
 dn ___,0,$000
 dn ___,0,$000
 dn ___,0,$000
 dn ___,0,$000
 dn ___,0,$000
 dn ___,0,$000
 dn ___,0,$000
 dn ___,0,$000
 dn ___,0,$000
 dn ___,0,$000
 dn ___,0,$000
 dn ___,0,$000
 dn ___,0,$000
 dn ___,0,$000
 dn ___,0,$000
 dn ___,0,$000
 dn ___,0,$000
 dn ___,0,$000
 dn ___,0,$000
 dn ___,0,$000
 dn ___,0,$000
 dn ___,0,$000
 dn ___,0,$000
 dn ___,0,$000
 dn ___,0,$000
 dn ___,0,$000

itNoiseSP1:
 dn ___,0,$000
 dn 22,2,$000
 dn 5,0,$000
 dn 5,0,$000
 dn 5,0,$000
 dn 5,0,$000
 dn 5,0,$000
 dn ___,0,$000
 dn ___,0,$000
 dn ___,0,$000
 dn ___,0,$000
 dn ___,0,$000
 dn ___,0,$000
 dn ___,0,$000
 dn ___,0,$000
 dn ___,0,$000
 dn ___,0,$000
 dn ___,0,$000
 dn ___,0,$000
 dn ___,0,$000
 dn ___,0,$000
 dn ___,0,$000
 dn ___,0,$000
 dn ___,0,$000
 dn ___,0,$000
 dn ___,0,$000
 dn ___,0,$000
 dn ___,0,$000
 dn ___,0,$000
 dn ___,0,$000
 dn ___,0,$000
 dn ___,1,$000

duty_instruments:
itSquareinst1:
db 8
db 0
db 176
dw 0
db 128

itSquareinst2:
db 8
db 64
db 240
dw 0
db 128

itSquareinst3:
db 8
db 128
db 240
dw 0
db 128

itSquareinst4:
db 8
db 192
db 240
dw 0
db 128

itSquareinst5:
db 8
db 0
db 241
dw 0
db 128

itSquareinst6:
db 8
db 64
db 241
dw 0
db 128

itSquareinst7:
db 8
db 128
db 241
dw 0
db 128

itSquareinst8:
db 8
db 192
db 241
dw 0
db 128

itSquareinst9:
db 59
db 128
db 178
dw 0
db 192

itSquareinst10:
db 103
db 128
db 128
dw 0
db 128

itSquareinst11:
db 111
db 128
db 144
dw 0
db 128



wave_instruments:
itWaveinst1:
db 0
db 32
db 1
dw 0
db 128



noise_instruments:
itNoiseinst1:
db 177
dw itNoiseSP1
db 112
ds 2

itNoiseinst2:
db 178
dw 0
db 92
ds 2



routines:
__hUGE_Routine_0:

__end_hUGE_Routine_0:
ret

__hUGE_Routine_1:

__end_hUGE_Routine_1:
ret

__hUGE_Routine_2:

__end_hUGE_Routine_2:
ret

__hUGE_Routine_3:

__end_hUGE_Routine_3:
ret

__hUGE_Routine_4:

__end_hUGE_Routine_4:
ret

__hUGE_Routine_5:

__end_hUGE_Routine_5:
ret

__hUGE_Routine_6:

__end_hUGE_Routine_6:
ret

__hUGE_Routine_7:

__end_hUGE_Routine_7:
ret

__hUGE_Routine_8:

__end_hUGE_Routine_8:
ret

__hUGE_Routine_9:

__end_hUGE_Routine_9:
ret

__hUGE_Routine_10:

__end_hUGE_Routine_10:
ret

__hUGE_Routine_11:

__end_hUGE_Routine_11:
ret

__hUGE_Routine_12:

__end_hUGE_Routine_12:
ret

__hUGE_Routine_13:

__end_hUGE_Routine_13:
ret

__hUGE_Routine_14:

__end_hUGE_Routine_14:
ret

__hUGE_Routine_15:

__end_hUGE_Routine_15:
ret

waves:
wave0: db 0,0,255,255,255,255,255,255,255,255,255,255,255,255,255,255
wave1: db 0,0,0,0,255,255,255,255,255,255,255,255,255,255,255,255

