include "hUGE.inc"

SECTION "PastMusic Song Data", ROMX

PastMusic::
db 6
dw order_cnt
dw order1, order2, order3, order4
dw duty_instruments, wave_instruments, noise_instruments
dw routines
dw waves

order_cnt: db 26
order1: dw P0,P8,P8,P8,P8,P24,P24,P32,P36,P40,P44,P48,P52
order2: dw P1,P1,P1,P1,P21,P21,P21,P33,P37,P37,P37,P37,P53
order3: dw P0,P0,P0,P18,P22,P26,P30,P34,P38,P42,P46,P50,P54
order4: dw P3,P11,P3,P19,P23,P27,P27,P35,P39,P39,P39,P51,P55

P0:
 dn ___,0,$000
 dn ___,0,$000
 dn ___,0,$000
 dn ___,0,$000
 dn ___,0,$000
 dn ___,0,$000
 dn ___,0,$000
 dn ___,0,$000
 dn ___,0,$000
 dn ___,0,$000
 dn ___,0,$000
 dn ___,0,$000
 dn ___,0,$000
 dn ___,0,$000
 dn ___,0,$000
 dn ___,0,$000
 dn ___,0,$000
 dn ___,0,$000
 dn ___,0,$000
 dn ___,0,$000
 dn ___,0,$000
 dn ___,0,$000
 dn ___,0,$000
 dn ___,0,$000
 dn ___,0,$000
 dn ___,0,$000
 dn ___,0,$000
 dn ___,0,$000
 dn ___,0,$000
 dn ___,0,$000
 dn ___,0,$000
 dn ___,0,$000
 dn ___,0,$000
 dn ___,0,$000
 dn ___,0,$000
 dn ___,0,$000
 dn ___,0,$000
 dn ___,0,$000
 dn ___,0,$000
 dn ___,0,$000
 dn ___,0,$000
 dn ___,0,$000
 dn ___,0,$000
 dn ___,0,$000
 dn ___,0,$000
 dn ___,0,$000
 dn ___,0,$000
 dn ___,0,$000
 dn ___,0,$000
 dn ___,0,$000
 dn ___,0,$000
 dn ___,0,$000
 dn ___,0,$000
 dn ___,0,$000
 dn ___,0,$000
 dn ___,0,$000
 dn ___,0,$000
 dn ___,0,$000
 dn ___,0,$000
 dn ___,0,$000
 dn ___,0,$000
 dn ___,0,$000
 dn ___,0,$000
 dn ___,0,$000

P1:
 dn C_3,9,$000
 dn ___,0,$000
 dn ___,0,$000
 dn ___,0,$000
 dn C_3,9,$000
 dn ___,0,$000
 dn ___,0,$000
 dn ___,0,$000
 dn C_3,9,$000
 dn ___,0,$000
 dn ___,0,$000
 dn ___,0,$000
 dn C_3,9,$000
 dn ___,0,$000
 dn C_3,9,$000
 dn ___,0,$000
 dn C_3,9,$000
 dn ___,0,$000
 dn ___,0,$000
 dn ___,0,$000
 dn C_3,9,$000
 dn ___,0,$000
 dn ___,0,$000
 dn ___,0,$000
 dn C_3,9,$000
 dn ___,0,$000
 dn ___,0,$000
 dn ___,0,$000
 dn C_3,9,$000
 dn ___,0,$000
 dn C_3,9,$000
 dn ___,0,$000
 dn C_3,9,$000
 dn ___,0,$000
 dn ___,0,$000
 dn ___,0,$000
 dn C_3,9,$000
 dn ___,0,$000
 dn ___,0,$000
 dn ___,0,$000
 dn C_3,9,$000
 dn ___,0,$000
 dn ___,0,$000
 dn ___,0,$000
 dn C_3,9,$000
 dn ___,0,$000
 dn C_3,9,$000
 dn ___,0,$000
 dn C_3,9,$000
 dn ___,0,$000
 dn ___,0,$000
 dn ___,0,$000
 dn C_3,9,$000
 dn ___,0,$000
 dn ___,0,$000
 dn ___,0,$000
 dn C_3,9,$000
 dn ___,0,$000
 dn ___,0,$000
 dn ___,0,$000
 dn C_3,9,$000
 dn ___,0,$000
 dn ___,0,$000
 dn ___,0,$000

P3:
 dn B_7,3,$C0A
 dn D_8,3,$C05
 dn B_7,3,$C05
 dn D_8,3,$C05
 dn B_7,3,$C05
 dn B_7,3,$C05
 dn D_8,3,$C05
 dn B_7,3,$C05
 dn D_8,3,$C0A
 dn B_7,3,$C05
 dn D_8,3,$C05
 dn B_7,3,$C05
 dn B_7,3,$C05
 dn D_8,3,$C05
 dn B_7,3,$C05
 dn D_8,3,$C05
 dn B_7,3,$C0A
 dn D_8,3,$C05
 dn B_7,3,$C05
 dn D_8,3,$C05
 dn B_7,3,$C05
 dn B_7,3,$C05
 dn D_8,3,$C05
 dn B_7,3,$C05
 dn D_8,3,$C0A
 dn B_7,3,$C05
 dn D_8,3,$C05
 dn B_7,3,$C05
 dn B_7,3,$C05
 dn D_8,3,$C05
 dn B_7,3,$C05
 dn D_8,3,$C05
 dn B_7,3,$C0A
 dn D_8,3,$C05
 dn B_7,3,$C05
 dn D_8,3,$C05
 dn B_7,3,$C05
 dn B_7,3,$C05
 dn D_8,3,$C05
 dn B_7,3,$C05
 dn D_8,3,$C0A
 dn B_7,3,$C05
 dn D_8,3,$C05
 dn B_7,3,$C05
 dn B_7,3,$C05
 dn D_8,3,$C05
 dn B_7,3,$C05
 dn D_8,3,$C05
 dn B_7,3,$C0A
 dn D_8,3,$C05
 dn B_7,3,$C05
 dn D_8,3,$C05
 dn B_7,3,$C05
 dn B_7,3,$C05
 dn D_8,3,$C05
 dn B_7,3,$C05
 dn D_8,3,$C0A
 dn ___,0,$000
 dn D_8,3,$C05
 dn ___,0,$000
 dn B_7,3,$C05
 dn ___,0,$000
 dn ___,0,$000
 dn ___,0,$000

P8:
 dn D#3,5,$000
 dn ___,0,$000
 dn ___,0,$000
 dn ___,0,$000
 dn ___,0,$000
 dn ___,0,$000
 dn ___,0,$000
 dn ___,0,$000
 dn D#3,5,$000
 dn ___,0,$000
 dn ___,0,$000
 dn F#3,5,$000
 dn ___,0,$000
 dn ___,0,$000
 dn ___,0,$000
 dn ___,0,$000
 dn D#3,5,$000
 dn ___,0,$000
 dn ___,0,$000
 dn ___,0,$000
 dn D#3,5,$000
 dn ___,0,$000
 dn ___,0,$000
 dn ___,0,$000
 dn F#3,5,$000
 dn ___,0,$000
 dn ___,0,$000
 dn G#3,5,$000
 dn ___,0,$000
 dn ___,0,$000
 dn G#3,5,$000
 dn ___,0,$000
 dn D#3,5,$000
 dn ___,0,$000
 dn ___,0,$000
 dn ___,0,$000
 dn ___,0,$000
 dn ___,0,$000
 dn ___,0,$000
 dn ___,0,$000
 dn C#3,5,$000
 dn ___,0,$000
 dn ___,0,$000
 dn F_3,5,$000
 dn ___,0,$000
 dn ___,0,$000
 dn ___,0,$000
 dn ___,0,$000
 dn D#3,5,$000
 dn ___,0,$000
 dn ___,0,$000
 dn ___,0,$000
 dn D#3,5,$000
 dn ___,0,$000
 dn ___,0,$000
 dn ___,0,$000
 dn D#3,5,$000
 dn ___,0,$000
 dn ___,0,$000
 dn F#3,5,$000
 dn ___,0,$000
 dn ___,0,$000
 dn F#3,5,$000
 dn ___,0,$000

P11:
 dn B_7,3,$C0A
 dn D_8,3,$C05
 dn B_7,3,$C05
 dn D_8,3,$C05
 dn B_7,3,$C05
 dn B_7,3,$C05
 dn D_8,3,$C05
 dn B_7,3,$C05
 dn D_8,3,$C0A
 dn B_7,3,$C05
 dn D_8,3,$C05
 dn B_7,3,$C05
 dn B_7,3,$C05
 dn D_8,3,$C05
 dn B_7,3,$C05
 dn D_8,3,$C05
 dn B_7,3,$C0A
 dn D_8,3,$C05
 dn B_7,3,$C05
 dn D_8,3,$C05
 dn B_7,3,$C05
 dn B_7,3,$C05
 dn D_8,3,$C05
 dn B_7,3,$C05
 dn D_8,3,$C0A
 dn B_7,3,$C05
 dn D_8,3,$C05
 dn B_7,3,$C05
 dn B_7,3,$C05
 dn D_8,3,$C05
 dn B_7,3,$C05
 dn D_8,3,$C05
 dn B_7,3,$C0A
 dn D_8,3,$C05
 dn B_7,3,$C05
 dn D_8,3,$C05
 dn B_7,3,$C05
 dn B_7,3,$C05
 dn D_8,3,$C05
 dn B_7,3,$C05
 dn D_8,3,$C0A
 dn B_7,3,$C05
 dn D_8,3,$C05
 dn B_7,3,$C05
 dn B_7,3,$C05
 dn D_8,3,$C05
 dn B_7,3,$C05
 dn D_8,3,$C05
 dn B_7,3,$C0A
 dn D_8,3,$C05
 dn B_7,3,$C05
 dn D_8,3,$C05
 dn B_7,3,$C05
 dn B_7,3,$C05
 dn D_8,3,$C05
 dn B_7,3,$C05
 dn D_8,3,$C0A
 dn B_7,3,$C05
 dn D_8,3,$C05
 dn B_7,3,$C05
 dn B_7,3,$C05
 dn D_8,3,$C05
 dn B_7,3,$C05
 dn D_8,3,$C05

P18:
 dn D#6,5,$000
 dn ___,0,$000
 dn ___,0,$000
 dn ___,0,$000
 dn ___,0,$000
 dn ___,0,$000
 dn ___,0,$000
 dn ___,0,$000
 dn ___,0,$000
 dn ___,0,$000
 dn ___,0,$000
 dn ___,0,$000
 dn F#6,5,$000
 dn ___,0,$000
 dn A#6,5,$000
 dn ___,0,$000
 dn ___,0,$000
 dn ___,0,$000
 dn F_6,5,$000
 dn ___,0,$207
 dn ___,0,$000
 dn ___,0,$000
 dn G#6,5,$000
 dn ___,0,$000
 dn ___,0,$000
 dn ___,0,$000
 dn F_6,5,$000
 dn ___,0,$207
 dn ___,0,$000
 dn ___,0,$000
 dn ___,0,$000
 dn ___,0,$000
 dn D#6,5,$000
 dn ___,0,$E00
 dn D_6,5,$000
 dn ___,0,$E00
 dn C#6,5,$000
 dn ___,0,$E00
 dn C_6,5,$000
 dn ___,0,$E00
 dn A#5,5,$000
 dn ___,0,$E00
 dn F#5,5,$000
 dn ___,0,$E00
 dn G#5,5,$000
 dn ___,0,$E00
 dn A#5,5,$000
 dn ___,0,$E00
 dn A#5,5,$000
 dn ___,0,$E00
 dn ___,0,$000
 dn ___,0,$000
 dn F#5,5,$000
 dn ___,0,$E00
 dn ___,0,$000
 dn ___,0,$000
 dn A#5,5,$000
 dn ___,0,$000
 dn ___,0,$000
 dn ___,0,$000
 dn ___,0,$000
 dn ___,0,$000
 dn ___,0,$000
 dn ___,0,$000

P19:
 dn B_7,3,$C0A
 dn D_8,3,$C05
 dn B_7,3,$C05
 dn D_8,3,$C05
 dn B_7,3,$C05
 dn B_7,3,$C05
 dn D_8,3,$C05
 dn B_7,3,$C05
 dn D_8,3,$C0A
 dn B_7,3,$C05
 dn D_8,3,$C05
 dn B_7,3,$C05
 dn B_7,3,$C05
 dn D_8,3,$C05
 dn B_7,3,$C05
 dn D_8,3,$C05
 dn B_7,3,$C0A
 dn D_8,3,$C05
 dn B_7,3,$C05
 dn D_8,3,$C05
 dn B_7,3,$C05
 dn B_7,3,$C05
 dn D_8,3,$C05
 dn B_7,3,$C05
 dn D_8,3,$C0A
 dn B_7,3,$C05
 dn D_8,3,$C05
 dn B_7,3,$C05
 dn B_7,3,$C05
 dn D_8,3,$C05
 dn B_7,3,$C05
 dn D_8,3,$C05
 dn B_7,3,$C0A
 dn D_8,3,$C05
 dn B_7,3,$C05
 dn D_8,3,$C05
 dn B_7,3,$C05
 dn B_7,3,$C05
 dn D_8,3,$C05
 dn B_7,3,$C05
 dn B_7,3,$C0A
 dn D_8,3,$C05
 dn B_7,3,$C05
 dn D_8,3,$C05
 dn B_7,3,$C05
 dn B_7,3,$C05
 dn D_8,3,$C05
 dn B_7,3,$C05
 dn B_7,3,$C0A
 dn D_8,3,$C05
 dn B_7,3,$C05
 dn D_8,3,$C05
 dn B_7,3,$C05
 dn B_7,3,$C05
 dn D_8,3,$C05
 dn B_7,3,$C05
 dn D_8,3,$C0A
 dn B_7,3,$C05
 dn D_8,3,$C05
 dn B_7,3,$C05
 dn B_7,3,$C05
 dn D_8,3,$C05
 dn B_7,3,$C05
 dn D_8,3,$C05

P21:
 dn C_3,9,$000
 dn ___,0,$000
 dn ___,0,$000
 dn ___,0,$000
 dn C_3,9,$000
 dn ___,0,$000
 dn ___,0,$000
 dn ___,0,$000
 dn C_3,9,$000
 dn ___,0,$000
 dn ___,0,$000
 dn ___,0,$000
 dn C_3,9,$000
 dn ___,0,$000
 dn C_3,9,$000
 dn ___,0,$000
 dn C_3,9,$000
 dn ___,0,$000
 dn ___,0,$000
 dn ___,0,$000
 dn C_3,9,$000
 dn ___,0,$000
 dn ___,0,$000
 dn ___,0,$000
 dn C_3,9,$000
 dn ___,0,$000
 dn ___,0,$000
 dn ___,0,$000
 dn C_3,9,$000
 dn ___,0,$000
 dn ___,0,$000
 dn ___,0,$000
 dn C_3,9,$000
 dn ___,0,$000
 dn ___,0,$000
 dn ___,0,$000
 dn C_3,9,$000
 dn ___,0,$000
 dn ___,0,$000
 dn ___,0,$000
 dn C_3,9,$000
 dn ___,0,$000
 dn ___,0,$000
 dn ___,0,$000
 dn C_3,9,$000
 dn ___,0,$000
 dn C_3,9,$000
 dn ___,0,$000
 dn C_3,9,$000
 dn ___,0,$000
 dn ___,0,$000
 dn ___,0,$000
 dn C_3,9,$000
 dn ___,0,$000
 dn ___,0,$000
 dn ___,0,$000
 dn C_3,9,$000
 dn ___,0,$000
 dn ___,0,$000
 dn ___,0,$000
 dn C_3,9,$000
 dn ___,0,$000
 dn ___,0,$000
 dn ___,0,$000

P22:
 dn D#6,5,$000
 dn ___,0,$000
 dn ___,0,$000
 dn ___,0,$000
 dn ___,0,$000
 dn ___,0,$000
 dn ___,0,$000
 dn ___,0,$000
 dn ___,0,$000
 dn ___,0,$000
 dn ___,0,$000
 dn ___,0,$000
 dn F#6,5,$000
 dn ___,0,$000
 dn ___,0,$E00
 dn ___,0,$000
 dn G#6,5,$000
 dn ___,0,$E00
 dn ___,0,$000
 dn ___,0,$000
 dn C#6,5,$000
 dn ___,0,$E00
 dn ___,0,$000
 dn ___,0,$000
 dn G#5,5,$000
 dn ___,0,$000
 dn ___,0,$E00
 dn ___,0,$000
 dn F#5,5,$000
 dn ___,0,$000
 dn ___,0,$E00
 dn ___,0,$000
 dn A#5,5,$000
 dn ___,0,$000
 dn ___,0,$000
 dn ___,0,$000
 dn ___,0,$000
 dn ___,0,$000
 dn ___,0,$000
 dn ___,0,$000
 dn ___,0,$000
 dn ___,0,$000
 dn ___,0,$000
 dn ___,0,$000
 dn ___,0,$000
 dn ___,0,$000
 dn ___,0,$000
 dn ___,0,$000
 dn ___,0,$000
 dn ___,0,$000
 dn ___,0,$000
 dn ___,0,$000
 dn ___,0,$000
 dn ___,0,$000
 dn ___,0,$000
 dn ___,0,$000
 dn G#5,5,$000
 dn ___,0,$000
 dn ___,0,$209
 dn ___,0,$000
 dn F#5,5,$000
 dn ___,0,$000
 dn ___,0,$209
 dn ___,0,$000

P23:
 dn B_7,3,$C0A
 dn D_8,3,$C05
 dn B_7,3,$C05
 dn D_8,3,$C05
 dn B_7,3,$C05
 dn B_7,3,$C05
 dn D_8,3,$C05
 dn B_7,3,$C05
 dn D_8,3,$C0A
 dn B_7,3,$C05
 dn D_8,3,$C05
 dn B_7,3,$C05
 dn B_7,3,$C05
 dn D_8,3,$C05
 dn B_7,3,$C05
 dn D_8,3,$C05
 dn B_7,3,$C0A
 dn ___,0,$000
 dn B_7,3,$C05
 dn ___,0,$000
 dn B_7,3,$C05
 dn ___,0,$000
 dn D_8,3,$C05
 dn ___,0,$000
 dn D_8,3,$C0A
 dn ___,0,$000
 dn D_8,3,$C05
 dn ___,0,$000
 dn B_7,3,$C05
 dn ___,0,$000
 dn B_7,3,$C05
 dn ___,0,$000
 dn B_7,3,$C0A
 dn D_8,3,$C05
 dn B_7,3,$C05
 dn D_8,3,$C05
 dn B_7,3,$C05
 dn B_7,3,$C05
 dn D_8,3,$C05
 dn B_7,3,$C05
 dn D_8,3,$C0A
 dn B_7,3,$C05
 dn D_8,3,$C05
 dn B_7,3,$C05
 dn B_7,3,$C05
 dn D_8,3,$C05
 dn B_7,3,$C05
 dn D_8,3,$C05
 dn C_8,2,$000
 dn ___,0,$000
 dn D_8,3,$C05
 dn B_7,3,$C05
 dn C_8,2,$000
 dn ___,0,$000
 dn B_7,3,$C05
 dn D_8,3,$C05
 dn C_8,2,$000
 dn ___,0,$000
 dn D_8,3,$C05
 dn B_7,3,$C05
 dn C_8,2,$000
 dn ___,0,$000
 dn B_7,3,$C05
 dn D_8,3,$C05

P24:
 dn D#3,5,$000
 dn ___,0,$000
 dn ___,0,$000
 dn ___,0,$000
 dn C#3,5,$000
 dn ___,0,$000
 dn ___,0,$000
 dn ___,0,$000
 dn D#3,5,$000
 dn ___,0,$000
 dn ___,0,$000
 dn ___,0,$000
 dn C#3,5,$000
 dn ___,0,$000
 dn ___,0,$000
 dn ___,0,$000
 dn D#3,5,$000
 dn ___,0,$000
 dn ___,0,$000
 dn ___,0,$000
 dn C#3,5,$000
 dn ___,0,$000
 dn ___,0,$000
 dn ___,0,$000
 dn F#3,5,$000
 dn ___,0,$000
 dn ___,0,$000
 dn ___,0,$000
 dn F_3,5,$000
 dn ___,0,$000
 dn ___,0,$000
 dn ___,0,$000
 dn D#3,5,$000
 dn ___,0,$000
 dn ___,0,$000
 dn ___,0,$000
 dn C#3,5,$000
 dn ___,0,$000
 dn ___,0,$000
 dn ___,0,$000
 dn D#3,5,$000
 dn ___,0,$000
 dn ___,0,$000
 dn ___,0,$000
 dn C#3,5,$000
 dn ___,0,$000
 dn ___,0,$000
 dn ___,0,$000
 dn D#3,5,$000
 dn ___,0,$000
 dn ___,0,$000
 dn ___,0,$000
 dn C#3,5,$000
 dn ___,0,$000
 dn ___,0,$000
 dn ___,0,$000
 dn F#3,5,$000
 dn ___,0,$000
 dn ___,0,$000
 dn ___,0,$000
 dn F_3,5,$000
 dn ___,0,$000
 dn ___,0,$000
 dn ___,0,$000

P26:
 dn D#5,5,$000
 dn ___,0,$000
 dn ___,0,$000
 dn ___,0,$000
 dn ___,0,$000
 dn ___,0,$000
 dn ___,0,$000
 dn ___,0,$000
 dn ___,0,$000
 dn ___,0,$000
 dn ___,0,$000
 dn ___,0,$000
 dn ___,0,$E00
 dn ___,0,$000
 dn ___,0,$000
 dn ___,0,$000
 dn D#5,5,$000
 dn ___,0,$000
 dn ___,0,$E00
 dn ___,0,$000
 dn C#5,5,$000
 dn ___,0,$000
 dn ___,0,$E00
 dn ___,0,$000
 dn F#5,5,$000
 dn ___,0,$000
 dn ___,0,$E00
 dn ___,0,$000
 dn F_5,5,$000
 dn ___,0,$000
 dn ___,0,$E00
 dn ___,0,$000
 dn D#5,5,$000
 dn ___,0,$000
 dn ___,0,$000
 dn ___,0,$000
 dn ___,0,$000
 dn ___,0,$000
 dn ___,0,$000
 dn ___,0,$000
 dn ___,0,$000
 dn ___,0,$000
 dn ___,0,$000
 dn ___,0,$000
 dn ___,0,$E00
 dn ___,0,$000
 dn ___,0,$000
 dn ___,0,$000
 dn D#5,5,$000
 dn ___,0,$000
 dn ___,0,$E00
 dn ___,0,$000
 dn C#5,5,$000
 dn ___,0,$000
 dn ___,0,$E00
 dn ___,0,$000
 dn D#5,5,$000
 dn ___,0,$E00
 dn F#5,5,$000
 dn ___,0,$E00
 dn G#5,5,$000
 dn ___,0,$E00
 dn A#5,5,$000
 dn ___,0,$E00

P27:
 dn B_7,3,$C0A
 dn D_8,3,$C05
 dn B_7,3,$C05
 dn D_8,3,$C05
 dn B_7,3,$C05
 dn B_7,3,$C05
 dn D_8,3,$C05
 dn B_7,3,$C05
 dn B_7,3,$C0A
 dn D_8,3,$C05
 dn B_7,3,$C05
 dn D_8,3,$C05
 dn B_7,3,$C05
 dn B_7,3,$C05
 dn D_8,3,$C05
 dn B_7,3,$C05
 dn B_7,3,$C0A
 dn D_8,3,$C05
 dn B_7,3,$C05
 dn D_8,3,$C05
 dn C_8,2,$000
 dn ___,0,$000
 dn ___,0,$000
 dn ___,0,$000
 dn B_7,3,$C0A
 dn D_8,3,$C05
 dn B_7,3,$C05
 dn D_8,3,$C05
 dn C_8,2,$000
 dn ___,0,$000
 dn ___,0,$000
 dn ___,0,$000
 dn B_7,3,$C0A
 dn D_8,3,$C05
 dn B_7,3,$C05
 dn D_8,3,$C05
 dn B_7,3,$C05
 dn B_7,3,$C05
 dn D_8,3,$C05
 dn B_7,3,$C05
 dn B_7,3,$C0A
 dn D_8,3,$C05
 dn B_7,3,$C05
 dn D_8,3,$C05
 dn B_7,3,$C05
 dn B_7,3,$C05
 dn D_8,3,$C05
 dn B_7,3,$C05
 dn B_7,3,$C0A
 dn D_8,3,$C05
 dn B_7,3,$C05
 dn D_8,3,$C05
 dn C_8,2,$000
 dn ___,0,$000
 dn ___,0,$000
 dn ___,0,$000
 dn B_7,3,$C0A
 dn D_8,3,$C05
 dn B_7,3,$C05
 dn D_8,3,$C05
 dn C_8,2,$000
 dn ___,0,$000
 dn ___,0,$000
 dn ___,0,$000

P30:
 dn D#5,5,$000
 dn ___,0,$000
 dn ___,0,$000
 dn ___,0,$000
 dn ___,0,$000
 dn ___,0,$000
 dn ___,0,$000
 dn ___,0,$000
 dn ___,0,$000
 dn ___,0,$000
 dn ___,0,$000
 dn ___,0,$000
 dn ___,0,$E00
 dn ___,0,$000
 dn ___,0,$000
 dn ___,0,$000
 dn D#5,5,$000
 dn ___,0,$000
 dn ___,0,$E00
 dn ___,0,$000
 dn C#5,5,$000
 dn ___,0,$000
 dn ___,0,$E00
 dn ___,0,$000
 dn F#5,5,$000
 dn ___,0,$000
 dn ___,0,$E00
 dn ___,0,$000
 dn F_5,5,$000
 dn ___,0,$000
 dn ___,0,$E00
 dn ___,0,$000
 dn D#5,5,$000
 dn ___,0,$000
 dn ___,0,$000
 dn ___,0,$000
 dn ___,0,$000
 dn ___,0,$000
 dn ___,0,$000
 dn ___,0,$000
 dn ___,0,$000
 dn ___,0,$000
 dn ___,0,$000
 dn ___,0,$000
 dn ___,0,$E00
 dn ___,0,$000
 dn ___,0,$000
 dn ___,0,$000
 dn D#5,5,$000
 dn ___,0,$E00
 dn C#5,5,$000
 dn ___,0,$E00
 dn F_5,5,$000
 dn ___,0,$E00
 dn D#5,5,$000
 dn ___,0,$E00
 dn F#5,5,$000
 dn ___,0,$E00
 dn G#5,5,$000
 dn ___,0,$E00
 dn A#5,5,$000
 dn ___,0,$E00
 dn C#6,5,$000
 dn ___,0,$E00

P32:
 dn D#3,5,$000
 dn ___,0,$000
 dn ___,0,$000
 dn ___,0,$000
 dn C#3,5,$000
 dn ___,0,$000
 dn ___,0,$000
 dn ___,0,$000
 dn D#3,5,$000
 dn ___,0,$000
 dn ___,0,$000
 dn ___,0,$000
 dn C#3,5,$000
 dn ___,0,$000
 dn ___,0,$000
 dn ___,0,$000
 dn D#3,5,$000
 dn ___,0,$000
 dn ___,0,$000
 dn D#3,5,$000
 dn ___,0,$000
 dn ___,0,$000
 dn D#3,5,$000
 dn ___,0,$000
 dn C#3,5,$000
 dn ___,0,$000
 dn ___,0,$000
 dn C#3,5,$000
 dn ___,0,$000
 dn ___,0,$000
 dn C#3,5,$000
 dn ___,0,$000
 dn D#3,5,$000
 dn ___,0,$000
 dn ___,0,$000
 dn ___,0,$000
 dn C#3,5,$000
 dn ___,0,$000
 dn ___,0,$000
 dn ___,0,$000
 dn D#3,5,$000
 dn ___,0,$000
 dn ___,0,$000
 dn ___,0,$000
 dn C#3,5,$000
 dn ___,0,$000
 dn ___,0,$000
 dn ___,0,$000
 dn D#3,5,$000
 dn ___,0,$000
 dn ___,0,$000
 dn D#3,5,$000
 dn ___,0,$000
 dn ___,0,$000
 dn D#3,5,$000
 dn ___,0,$000
 dn C#3,5,$000
 dn ___,0,$000
 dn ___,0,$000
 dn D#3,5,$000
 dn ___,0,$000
 dn ___,0,$000
 dn F#3,5,$000
 dn ___,0,$000

P33:
 dn C_3,9,$000
 dn ___,0,$000
 dn ___,0,$000
 dn ___,0,$000
 dn C_3,9,$000
 dn ___,0,$000
 dn ___,0,$000
 dn ___,0,$000
 dn C_3,9,$000
 dn ___,0,$000
 dn ___,0,$000
 dn ___,0,$000
 dn C_3,9,$000
 dn ___,0,$000
 dn ___,0,$000
 dn ___,0,$000
 dn C_3,9,$000
 dn ___,0,$000
 dn ___,0,$000
 dn ___,0,$000
 dn C_3,9,$000
 dn ___,0,$000
 dn ___,0,$000
 dn ___,0,$000
 dn C_3,9,$000
 dn ___,0,$000
 dn ___,0,$000
 dn ___,0,$000
 dn C_3,9,$000
 dn ___,0,$000
 dn ___,0,$000
 dn ___,0,$000
 dn C_3,9,$000
 dn ___,0,$000
 dn ___,0,$000
 dn ___,0,$000
 dn C_3,9,$000
 dn ___,0,$000
 dn ___,0,$000
 dn ___,0,$000
 dn C_3,9,$000
 dn ___,0,$000
 dn ___,0,$000
 dn ___,0,$000
 dn C_3,9,$000
 dn ___,0,$000
 dn ___,0,$000
 dn ___,0,$000
 dn C_3,9,$000
 dn ___,0,$000
 dn ___,0,$000
 dn C_3,9,$000
 dn ___,0,$000
 dn ___,0,$000
 dn C_3,9,$000
 dn ___,0,$000
 dn C_3,9,$000
 dn ___,0,$000
 dn ___,0,$000
 dn C_3,9,$000
 dn ___,0,$000
 dn ___,0,$000
 dn C_3,9,$000
 dn ___,0,$000

P34:
 dn D#6,5,$000
 dn ___,0,$000
 dn ___,0,$000
 dn ___,0,$000
 dn ___,0,$000
 dn ___,0,$000
 dn ___,0,$000
 dn ___,0,$000
 dn ___,0,$000
 dn ___,0,$000
 dn ___,0,$000
 dn ___,0,$000
 dn ___,0,$000
 dn ___,0,$000
 dn ___,0,$000
 dn ___,0,$000
 dn D#6,5,$000
 dn ___,0,$E00
 dn ___,0,$000
 dn D#6,5,$000
 dn ___,0,$E00
 dn ___,0,$000
 dn D#6,5,$000
 dn ___,0,$E00
 dn D#6,5,$000
 dn ___,0,$E00
 dn ___,0,$000
 dn D#6,5,$000
 dn ___,0,$E00
 dn ___,0,$000
 dn D#6,5,$000
 dn ___,0,$E00
 dn D#6,5,$000
 dn ___,0,$000
 dn ___,0,$000
 dn ___,0,$000
 dn ___,0,$000
 dn ___,0,$000
 dn ___,0,$000
 dn ___,0,$000
 dn ___,0,$000
 dn ___,0,$000
 dn ___,0,$000
 dn ___,0,$000
 dn ___,0,$000
 dn ___,0,$000
 dn ___,0,$000
 dn ___,0,$000
 dn D#6,5,$000
 dn ___,0,$E00
 dn ___,0,$000
 dn D#6,5,$000
 dn ___,0,$E00
 dn ___,0,$000
 dn D#6,5,$000
 dn ___,0,$E00
 dn D#6,5,$000
 dn ___,0,$E00
 dn ___,0,$000
 dn F#6,5,$000
 dn ___,0,$E00
 dn ___,0,$000
 dn G#6,5,$000
 dn ___,0,$E00

P35:
 dn B_7,3,$C0A
 dn D_8,3,$C05
 dn B_7,3,$C05
 dn D_8,3,$C05
 dn B_7,3,$C05
 dn B_7,3,$C05
 dn D_8,3,$C05
 dn B_7,3,$C05
 dn B_7,3,$C0A
 dn D_8,3,$C05
 dn B_7,3,$C05
 dn D_8,3,$C05
 dn C_8,2,$000
 dn ___,0,$000
 dn ___,0,$000
 dn ___,0,$000
 dn B_7,3,$C0A
 dn D_8,3,$C05
 dn B_7,3,$C05
 dn D_8,3,$C05
 dn B_7,3,$C05
 dn B_7,3,$C05
 dn D_8,3,$C05
 dn B_7,3,$C05
 dn B_7,3,$C0A
 dn D_8,3,$C05
 dn B_7,3,$C05
 dn D_8,3,$C05
 dn C_8,2,$000
 dn ___,0,$000
 dn ___,0,$000
 dn ___,0,$000
 dn B_7,3,$C0A
 dn D_8,3,$C05
 dn B_7,3,$C05
 dn D_8,3,$C05
 dn B_7,3,$C05
 dn B_7,3,$C05
 dn D_8,3,$C05
 dn B_7,3,$C05
 dn B_7,3,$C0A
 dn D_8,3,$C05
 dn B_7,3,$C05
 dn D_8,3,$C05
 dn C_8,2,$000
 dn ___,0,$000
 dn ___,0,$000
 dn ___,0,$000
 dn B_7,3,$C0A
 dn ___,0,$000
 dn ___,0,$000
 dn D_8,3,$C05
 dn ___,0,$000
 dn ___,0,$000
 dn D_8,3,$C05
 dn ___,0,$000
 dn B_7,3,$C0A
 dn ___,0,$000
 dn ___,0,$000
 dn D_8,3,$C05
 dn C_8,2,$000
 dn ___,0,$000
 dn C_8,2,$000
 dn ___,0,$E00

P36:
 dn D#3,5,$000
 dn ___,0,$000
 dn ___,0,$000
 dn D#3,5,$000
 dn ___,0,$000
 dn ___,0,$000
 dn D#3,5,$000
 dn ___,0,$000
 dn D#3,5,$000
 dn ___,0,$000
 dn ___,0,$000
 dn D#3,5,$000
 dn ___,0,$000
 dn ___,0,$000
 dn D#3,5,$000
 dn ___,0,$000
 dn C#3,5,$000
 dn ___,0,$000
 dn ___,0,$000
 dn C#3,5,$000
 dn ___,0,$000
 dn ___,0,$000
 dn C#3,5,$000
 dn ___,0,$000
 dn C#3,5,$000
 dn ___,0,$000
 dn ___,0,$000
 dn C#3,5,$000
 dn ___,0,$000
 dn ___,0,$000
 dn C#3,5,$000
 dn ___,0,$000
 dn F#3,5,$000
 dn ___,0,$000
 dn ___,0,$000
 dn F#3,5,$000
 dn ___,0,$000
 dn ___,0,$000
 dn F#3,5,$000
 dn ___,0,$000
 dn F#3,5,$000
 dn ___,0,$000
 dn ___,0,$000
 dn F#3,5,$000
 dn ___,0,$000
 dn ___,0,$000
 dn F#3,5,$000
 dn ___,0,$000
 dn C#3,5,$000
 dn ___,0,$000
 dn ___,0,$000
 dn ___,0,$000
 dn D#3,5,$000
 dn ___,0,$000
 dn ___,0,$000
 dn ___,0,$000
 dn F#3,5,$000
 dn ___,0,$000
 dn ___,0,$000
 dn F#3,5,$000
 dn ___,0,$000
 dn ___,0,$000
 dn F#3,5,$000
 dn ___,0,$000

P37:
 dn C_3,9,$000
 dn ___,0,$000
 dn ___,0,$000
 dn C_3,9,$000
 dn ___,0,$000
 dn ___,0,$000
 dn C_3,9,$000
 dn ___,0,$000
 dn C_3,9,$000
 dn ___,0,$000
 dn ___,0,$000
 dn C_3,9,$000
 dn ___,0,$000
 dn ___,0,$000
 dn C_3,9,$000
 dn ___,0,$000
 dn C_3,9,$000
 dn ___,0,$000
 dn ___,0,$000
 dn C_3,9,$000
 dn ___,0,$000
 dn ___,0,$000
 dn C_3,9,$000
 dn ___,0,$000
 dn C_3,9,$000
 dn ___,0,$000
 dn ___,0,$000
 dn C_3,9,$000
 dn ___,0,$000
 dn ___,0,$000
 dn C_3,9,$000
 dn ___,0,$000
 dn C_3,9,$000
 dn ___,0,$000
 dn ___,0,$000
 dn C_3,9,$000
 dn ___,0,$000
 dn ___,0,$000
 dn C_3,9,$000
 dn ___,0,$000
 dn C_3,9,$000
 dn ___,0,$000
 dn ___,0,$000
 dn C_3,9,$000
 dn ___,0,$000
 dn ___,0,$000
 dn C_3,9,$000
 dn ___,0,$000
 dn C_3,9,$000
 dn ___,0,$000
 dn ___,0,$000
 dn C_3,9,$000
 dn ___,0,$000
 dn ___,0,$000
 dn C_3,9,$000
 dn ___,0,$000
 dn C_3,9,$000
 dn ___,0,$000
 dn ___,0,$000
 dn C_3,9,$000
 dn ___,0,$000
 dn ___,0,$000
 dn C_3,9,$000
 dn ___,0,$000

P38:
 dn D#7,5,$000
 dn ___,0,$000
 dn ___,0,$000
 dn ___,0,$000
 dn ___,0,$000
 dn ___,0,$E00
 dn A#6,5,$000
 dn ___,0,$E00
 dn A#6,5,$000
 dn ___,0,$000
 dn ___,0,$000
 dn ___,0,$000
 dn ___,0,$000
 dn ___,0,$000
 dn ___,0,$000
 dn ___,0,$000
 dn C#7,5,$000
 dn ___,0,$E00
 dn ___,0,$000
 dn F#6,5,$000
 dn ___,0,$E00
 dn ___,0,$000
 dn F#6,5,$000
 dn ___,0,$E00
 dn A#6,5,$000
 dn ___,0,$E00
 dn ___,0,$000
 dn F_6,5,$000
 dn ___,0,$E00
 dn ___,0,$000
 dn F_6,5,$000
 dn ___,0,$E00
 dn A#6,5,$000
 dn ___,0,$000
 dn ___,0,$000
 dn ___,0,$000
 dn ___,0,$000
 dn ___,0,$000
 dn ___,0,$000
 dn ___,0,$000
 dn ___,0,$000
 dn ___,0,$000
 dn F#6,5,$000
 dn ___,0,$E00
 dn G#6,5,$000
 dn ___,0,$E00
 dn A#6,5,$000
 dn ___,0,$E00
 dn C#6,5,$000
 dn ___,0,$000
 dn ___,0,$000
 dn ___,0,$000
 dn D#6,5,$000
 dn ___,0,$000
 dn ___,0,$000
 dn ___,0,$000
 dn F#6,5,$000
 dn ___,0,$000
 dn ___,0,$E00
 dn F#6,5,$000
 dn ___,0,$E00
 dn ___,0,$000
 dn F#6,5,$000
 dn ___,0,$E00

P39:
 dn B_7,3,$C0A
 dn D_8,3,$C05
 dn B_7,3,$C05
 dn D_8,3,$C05
 dn B_7,3,$C05
 dn B_7,3,$C05
 dn D_8,3,$C05
 dn B_7,3,$C05
 dn D_8,3,$C0A
 dn B_7,3,$C05
 dn D_8,3,$C05
 dn B_7,3,$C05
 dn B_7,3,$C05
 dn D_8,3,$C05
 dn B_7,3,$C05
 dn D_8,3,$C05
 dn B_7,3,$C0A
 dn D_8,3,$C05
 dn B_7,3,$C05
 dn D_8,3,$C05
 dn B_7,3,$C05
 dn B_7,3,$C05
 dn D_8,3,$C05
 dn B_7,3,$C05
 dn D_8,3,$C0A
 dn B_7,3,$C05
 dn D_8,3,$C05
 dn B_7,3,$C05
 dn B_7,3,$C05
 dn D_8,3,$C05
 dn B_7,3,$C05
 dn D_8,3,$C05
 dn B_7,3,$C0A
 dn D_8,3,$C05
 dn B_7,3,$C05
 dn D_8,3,$C05
 dn B_7,3,$C05
 dn B_7,3,$C05
 dn D_8,3,$C05
 dn B_7,3,$C05
 dn B_7,3,$C0A
 dn D_8,3,$C05
 dn B_7,3,$C05
 dn D_8,3,$C05
 dn B_7,3,$C05
 dn B_7,3,$C05
 dn D_8,3,$C05
 dn B_7,3,$C05
 dn C_8,2,$000
 dn D_8,3,$C05
 dn B_7,3,$C05
 dn D_8,3,$C05
 dn C_8,2,$000
 dn B_7,3,$C05
 dn D_8,3,$C05
 dn B_7,3,$C05
 dn C_8,2,$000
 dn B_7,3,$C05
 dn D_8,3,$C05
 dn B_7,3,$C05
 dn C_8,2,$000
 dn D_8,3,$C05
 dn B_7,3,$C05
 dn D_8,3,$C05

P40:
 dn D#3,5,$000
 dn ___,0,$000
 dn ___,0,$000
 dn D#3,5,$000
 dn ___,0,$000
 dn ___,0,$000
 dn D#3,5,$000
 dn ___,0,$000
 dn D#3,5,$000
 dn ___,0,$000
 dn ___,0,$000
 dn D#3,5,$000
 dn ___,0,$000
 dn ___,0,$000
 dn D#3,5,$000
 dn ___,0,$000
 dn C#3,5,$000
 dn ___,0,$000
 dn ___,0,$000
 dn C#3,5,$000
 dn ___,0,$000
 dn ___,0,$000
 dn C#3,5,$000
 dn ___,0,$000
 dn C#3,5,$000
 dn ___,0,$000
 dn ___,0,$000
 dn C#3,5,$000
 dn ___,0,$000
 dn ___,0,$000
 dn C#3,5,$000
 dn ___,0,$000
 dn F#3,5,$000
 dn ___,0,$000
 dn ___,0,$000
 dn F#3,5,$000
 dn ___,0,$000
 dn ___,0,$000
 dn F#3,5,$000
 dn ___,0,$000
 dn F#3,5,$000
 dn ___,0,$000
 dn ___,0,$000
 dn F#3,5,$000
 dn ___,0,$000
 dn ___,0,$000
 dn F#3,5,$000
 dn ___,0,$000
 dn C#3,5,$000
 dn ___,0,$000
 dn ___,0,$000
 dn ___,0,$000
 dn D#3,5,$000
 dn ___,0,$000
 dn ___,0,$000
 dn ___,0,$000
 dn F#3,5,$000
 dn ___,0,$000
 dn ___,0,$000
 dn ___,0,$000
 dn F#3,5,$000
 dn ___,0,$000
 dn ___,0,$000
 dn ___,0,$000

P42:
 dn D#7,5,$000
 dn ___,0,$000
 dn ___,0,$000
 dn ___,0,$000
 dn C#7,5,$000
 dn ___,0,$000
 dn ___,0,$202
 dn ___,0,$E00
 dn D#7,5,$000
 dn ___,0,$000
 dn ___,0,$000
 dn ___,0,$000
 dn B_6,5,$000
 dn ___,0,$000
 dn ___,0,$202
 dn ___,0,$E00
 dn A#6,5,$000
 dn ___,0,$000
 dn ___,0,$000
 dn ___,0,$000
 dn ___,0,$E00
 dn ___,0,$000
 dn G#6,5,$000
 dn ___,0,$E00
 dn F#6,5,$000
 dn ___,0,$E00
 dn ___,0,$000
 dn F#6,5,$000
 dn ___,0,$E00
 dn ___,0,$000
 dn F#6,5,$000
 dn ___,0,$E00
 dn A#6,5,$000
 dn ___,0,$000
 dn ___,0,$000
 dn ___,0,$000
 dn ___,0,$000
 dn ___,0,$000
 dn ___,0,$000
 dn ___,0,$000
 dn ___,0,$000
 dn ___,0,$000
 dn ___,0,$000
 dn ___,0,$000
 dn ___,0,$000
 dn ___,0,$000
 dn ___,0,$000
 dn ___,0,$000
 dn D#6,5,$000
 dn ___,0,$E00
 dn ___,0,$000
 dn ___,0,$000
 dn F_6,5,$000
 dn ___,0,$E00
 dn ___,0,$000
 dn ___,0,$000
 dn F#6,5,$000
 dn ___,0,$E00
 dn ___,0,$000
 dn F_6,5,$000
 dn ___,0,$E00
 dn ___,0,$000
 dn F_6,5,$000
 dn ___,0,$E00

P44:
 dn D#3,5,$000
 dn ___,0,$000
 dn ___,0,$000
 dn D#3,5,$000
 dn ___,0,$000
 dn ___,0,$000
 dn D#3,5,$000
 dn ___,0,$000
 dn D#3,5,$000
 dn ___,0,$000
 dn ___,0,$000
 dn D#3,5,$000
 dn ___,0,$000
 dn ___,0,$000
 dn D#3,5,$000
 dn ___,0,$000
 dn F_3,5,$000
 dn ___,0,$000
 dn ___,0,$000
 dn F_3,5,$000
 dn ___,0,$000
 dn ___,0,$000
 dn F_3,5,$000
 dn ___,0,$000
 dn F#3,5,$000
 dn ___,0,$000
 dn ___,0,$000
 dn F#3,5,$000
 dn ___,0,$000
 dn ___,0,$000
 dn F#3,5,$000
 dn ___,0,$000
 dn G#3,5,$000
 dn ___,0,$000
 dn ___,0,$000
 dn G#3,5,$000
 dn ___,0,$000
 dn ___,0,$000
 dn G#3,5,$000
 dn ___,0,$000
 dn G#3,5,$000
 dn ___,0,$000
 dn ___,0,$000
 dn G#3,5,$000
 dn ___,0,$000
 dn ___,0,$000
 dn G#3,5,$000
 dn ___,0,$000
 dn A#3,5,$000
 dn ___,0,$000
 dn ___,0,$000
 dn A#3,5,$000
 dn ___,0,$000
 dn ___,0,$000
 dn A#3,5,$000
 dn ___,0,$000
 dn A#3,5,$000
 dn ___,0,$000
 dn ___,0,$000
 dn ___,0,$000
 dn F#3,5,$000
 dn ___,0,$000
 dn ___,0,$000
 dn ___,0,$000

P46:
 dn D#6,5,$000
 dn ___,0,$E00
 dn ___,0,$000
 dn ___,0,$000
 dn ___,0,$000
 dn ___,0,$000
 dn A#5,5,$000
 dn ___,0,$E00
 dn A#5,5,$000
 dn ___,0,$E00
 dn ___,0,$000
 dn ___,0,$000
 dn ___,0,$000
 dn ___,0,$000
 dn ___,0,$000
 dn ___,0,$000
 dn D#6,5,$000
 dn ___,0,$E00
 dn ___,0,$000
 dn ___,0,$000
 dn F_6,5,$000
 dn ___,0,$E00
 dn ___,0,$000
 dn ___,0,$000
 dn F#6,5,$000
 dn ___,0,$E00
 dn ___,0,$000
 dn ___,0,$000
 dn F_6,5,$000
 dn ___,0,$000
 dn ___,0,$205
 dn ___,0,$000
 dn D#6,5,$000
 dn ___,0,$E00
 dn ___,0,$000
 dn ___,0,$000
 dn ___,0,$000
 dn ___,0,$000
 dn G#5,5,$000
 dn ___,0,$E00
 dn G#5,5,$000
 dn ___,0,$E00
 dn ___,0,$000
 dn ___,0,$000
 dn ___,0,$000
 dn ___,0,$000
 dn ___,0,$000
 dn ___,0,$000
 dn C#6,5,$000
 dn ___,0,$E00
 dn ___,0,$000
 dn ___,0,$000
 dn ___,0,$000
 dn ___,0,$000
 dn C#6,5,$000
 dn ___,0,$000
 dn ___,0,$E00
 dn D#6,5,$000
 dn ___,0,$000
 dn ___,0,$E00
 dn F_6,5,$000
 dn ___,0,$E00
 dn F#6,5,$000
 dn ___,0,$E00

P48:
 dn D#3,5,$000
 dn ___,0,$000
 dn ___,0,$000
 dn D#3,5,$000
 dn ___,0,$000
 dn ___,0,$000
 dn D#3,5,$000
 dn ___,0,$000
 dn D#3,5,$000
 dn ___,0,$000
 dn ___,0,$000
 dn D#3,5,$000
 dn ___,0,$000
 dn ___,0,$000
 dn D#3,5,$000
 dn ___,0,$000
 dn F_3,5,$000
 dn ___,0,$000
 dn ___,0,$000
 dn F_3,5,$000
 dn ___,0,$000
 dn ___,0,$000
 dn F_3,5,$000
 dn ___,0,$000
 dn F#3,5,$000
 dn ___,0,$000
 dn ___,0,$000
 dn F#3,5,$000
 dn ___,0,$000
 dn ___,0,$000
 dn F#3,5,$000
 dn ___,0,$000
 dn G#3,5,$000
 dn ___,0,$000
 dn ___,0,$000
 dn G#3,5,$000
 dn ___,0,$000
 dn ___,0,$000
 dn G#3,5,$000
 dn ___,0,$000
 dn G#3,5,$000
 dn ___,0,$000
 dn ___,0,$000
 dn G#3,5,$000
 dn ___,0,$000
 dn ___,0,$000
 dn G#3,5,$000
 dn ___,0,$000
 dn A#3,5,$000
 dn ___,0,$000
 dn ___,0,$000
 dn A#3,5,$000
 dn ___,0,$000
 dn ___,0,$000
 dn A#3,5,$000
 dn ___,0,$000
 dn A#3,5,$000
 dn ___,0,$000
 dn ___,0,$000
 dn ___,0,$000
 dn F_3,5,$000
 dn ___,0,$000
 dn ___,0,$000
 dn ___,0,$000

P50:
 dn D#6,5,$000
 dn ___,0,$E00
 dn ___,0,$000
 dn ___,0,$000
 dn ___,0,$000
 dn ___,0,$000
 dn A#5,5,$000
 dn ___,0,$E00
 dn A#5,5,$000
 dn ___,0,$E00
 dn ___,0,$000
 dn ___,0,$000
 dn ___,0,$000
 dn ___,0,$000
 dn ___,0,$000
 dn ___,0,$000
 dn D#6,5,$000
 dn ___,0,$E00
 dn ___,0,$000
 dn ___,0,$000
 dn F_6,5,$000
 dn ___,0,$E00
 dn ___,0,$000
 dn ___,0,$000
 dn F#6,5,$000
 dn ___,0,$E00
 dn ___,0,$000
 dn ___,0,$000
 dn F_6,5,$000
 dn ___,0,$000
 dn ___,0,$205
 dn ___,0,$000
 dn D#6,5,$000
 dn ___,0,$E00
 dn ___,0,$000
 dn ___,0,$000
 dn ___,0,$000
 dn ___,0,$000
 dn G#5,5,$000
 dn ___,0,$E00
 dn G#5,5,$000
 dn ___,0,$E00
 dn ___,0,$000
 dn ___,0,$000
 dn ___,0,$000
 dn ___,0,$000
 dn ___,0,$000
 dn ___,0,$000
 dn C#6,5,$000
 dn ___,0,$E00
 dn ___,0,$000
 dn ___,0,$000
 dn ___,0,$000
 dn ___,0,$000
 dn C#6,5,$000
 dn ___,0,$000
 dn ___,0,$E00
 dn D#6,5,$000
 dn ___,0,$000
 dn ___,0,$E00
 dn F_6,5,$000
 dn ___,0,$000
 dn ___,0,$000
 dn ___,0,$205

P51:
 dn B_7,3,$C0A
 dn D_8,3,$C05
 dn B_7,3,$C05
 dn D_8,3,$C05
 dn B_7,3,$C05
 dn B_7,3,$C05
 dn D_8,3,$C05
 dn B_7,3,$C05
 dn D_8,3,$C0A
 dn B_7,3,$C05
 dn D_8,3,$C05
 dn B_7,3,$C05
 dn B_7,3,$C05
 dn D_8,3,$C05
 dn B_7,3,$C05
 dn D_8,3,$C05
 dn B_7,3,$C0A
 dn D_8,3,$C05
 dn B_7,3,$C05
 dn D_8,3,$C05
 dn B_7,3,$C05
 dn B_7,3,$C05
 dn D_8,3,$C05
 dn B_7,3,$C05
 dn D_8,3,$C0A
 dn B_7,3,$C05
 dn D_8,3,$C05
 dn B_7,3,$C05
 dn B_7,3,$C05
 dn D_8,3,$C05
 dn B_7,3,$C05
 dn D_8,3,$C05
 dn B_7,3,$C0A
 dn D_8,3,$C05
 dn B_7,3,$C05
 dn D_8,3,$C05
 dn B_7,3,$C05
 dn B_7,3,$C05
 dn D_8,3,$C05
 dn B_7,3,$C05
 dn B_7,3,$C0A
 dn D_8,3,$C05
 dn B_7,3,$C05
 dn D_8,3,$C05
 dn B_7,3,$C05
 dn B_7,3,$C05
 dn D_8,3,$C05
 dn B_7,3,$C05
 dn C_8,2,$000
 dn D_8,3,$C05
 dn B_7,3,$C05
 dn D_8,3,$C05
 dn C_8,2,$000
 dn B_7,3,$C05
 dn D_8,3,$C05
 dn B_7,3,$C05
 dn C_8,2,$000
 dn B_7,3,$C05
 dn D_8,3,$C05
 dn B_7,3,$C05
 dn C_8,2,$000
 dn ___,0,$000
 dn ___,0,$000
 dn ___,0,$000

P52:
 dn D#3,5,$000
 dn ___,0,$000
 dn ___,0,$000
 dn ___,0,$000
 dn D#3,5,$000
 dn ___,0,$000
 dn ___,0,$000
 dn ___,0,$000
 dn D#3,5,$000
 dn ___,0,$000
 dn ___,0,$000
 dn ___,0,$000
 dn D#3,5,$000
 dn ___,0,$206
 dn ___,0,$000
 dn ___,0,$000
 dn D#3,5,$000
 dn ___,0,$000
 dn ___,0,$000
 dn ___,0,$000
 dn ___,0,$000
 dn ___,0,$000
 dn ___,0,$000
 dn ___,0,$000
 dn ___,0,$000
 dn ___,0,$000
 dn ___,0,$000
 dn ___,0,$000
 dn ___,0,$000
 dn ___,0,$000
 dn ___,0,$000
 dn ___,0,$000
 dn ___,0,$000
 dn ___,0,$000
 dn ___,0,$000
 dn ___,0,$000
 dn ___,0,$000
 dn ___,0,$000
 dn ___,0,$000
 dn ___,0,$000
 dn ___,0,$000
 dn ___,0,$000
 dn ___,0,$000
 dn ___,0,$000
 dn ___,0,$000
 dn ___,0,$000
 dn ___,0,$000
 dn ___,0,$000
 dn ___,0,$000
 dn ___,0,$000
 dn ___,0,$000
 dn ___,0,$000
 dn ___,0,$000
 dn ___,0,$000
 dn ___,0,$000
 dn ___,0,$000
 dn ___,0,$000
 dn ___,0,$000
 dn ___,0,$000
 dn ___,0,$000
 dn ___,0,$000
 dn ___,0,$000
 dn ___,0,$000
 dn ___,0,$000

P53:
 dn C_3,9,$000
 dn ___,0,$000
 dn ___,0,$000
 dn ___,0,$000
 dn C_3,9,$000
 dn ___,0,$000
 dn ___,0,$000
 dn ___,0,$000
 dn C_3,9,$000
 dn ___,0,$000
 dn ___,0,$000
 dn ___,0,$000
 dn C_3,9,$000
 dn ___,0,$000
 dn ___,0,$000
 dn ___,0,$000
 dn ___,0,$000
 dn ___,0,$000
 dn ___,0,$000
 dn ___,0,$000
 dn ___,0,$000
 dn ___,0,$000
 dn ___,0,$000
 dn ___,0,$000
 dn ___,0,$000
 dn ___,0,$000
 dn ___,0,$000
 dn ___,0,$000
 dn ___,0,$000
 dn ___,0,$000
 dn ___,0,$000
 dn ___,0,$000
 dn ___,0,$000
 dn ___,0,$000
 dn ___,0,$000
 dn ___,0,$000
 dn ___,0,$000
 dn ___,0,$000
 dn ___,0,$000
 dn ___,0,$000
 dn ___,0,$000
 dn ___,0,$000
 dn ___,0,$000
 dn ___,0,$000
 dn ___,0,$000
 dn ___,0,$000
 dn ___,0,$000
 dn ___,0,$000
 dn ___,0,$000
 dn ___,0,$000
 dn ___,0,$000
 dn ___,0,$000
 dn ___,0,$000
 dn ___,0,$000
 dn ___,0,$000
 dn ___,0,$000
 dn ___,0,$000
 dn ___,0,$000
 dn ___,0,$000
 dn ___,0,$000
 dn ___,0,$000
 dn ___,0,$000
 dn ___,0,$000
 dn ___,0,$000

P54:
 dn D#6,5,$000
 dn ___,0,$000
 dn ___,0,$E00
 dn ___,0,$000
 dn D#6,5,$000
 dn ___,0,$000
 dn ___,0,$E00
 dn ___,0,$000
 dn D#6,5,$000
 dn ___,0,$000
 dn ___,0,$E00
 dn ___,0,$000
 dn D#6,5,$000
 dn ___,0,$000
 dn ___,0,$206
 dn ___,0,$E00
 dn D#6,5,$000
 dn ___,0,$000
 dn ___,0,$E00
 dn ___,0,$000
 dn ___,0,$000
 dn ___,0,$000
 dn ___,0,$000
 dn ___,0,$000
 dn ___,0,$000
 dn ___,0,$000
 dn ___,0,$000
 dn ___,0,$000
 dn ___,0,$000
 dn ___,0,$000
 dn ___,0,$000
 dn ___,0,$000
 dn ___,0,$000
 dn ___,0,$000
 dn ___,0,$000
 dn ___,0,$000
 dn ___,0,$000
 dn ___,0,$000
 dn ___,0,$000
 dn ___,0,$000
 dn ___,0,$000
 dn ___,0,$000
 dn ___,0,$000
 dn ___,0,$000
 dn ___,0,$000
 dn ___,0,$000
 dn ___,0,$000
 dn ___,0,$000
 dn ___,0,$000
 dn ___,0,$000
 dn ___,0,$000
 dn ___,0,$000
 dn ___,0,$000
 dn ___,0,$000
 dn ___,0,$000
 dn ___,0,$000
 dn ___,0,$000
 dn ___,0,$000
 dn ___,0,$000
 dn ___,0,$000
 dn ___,0,$000
 dn ___,0,$000
 dn ___,0,$000
 dn ___,0,$000

P55:
 dn B_7,3,$C0A
 dn D_8,3,$C05
 dn B_7,3,$C05
 dn D_8,3,$C05
 dn B_7,3,$C05
 dn B_7,3,$C05
 dn D_8,3,$C05
 dn B_7,3,$C05
 dn D_8,3,$C0A
 dn B_7,3,$C05
 dn D_8,3,$C05
 dn B_7,3,$C05
 dn B_7,3,$C05
 dn D_8,3,$C05
 dn B_7,3,$C05
 dn D_8,3,$C05
 dn B_7,3,$C0A
 dn ___,0,$000
 dn ___,0,$000
 dn ___,0,$000
 dn ___,0,$000
 dn ___,0,$000
 dn ___,0,$000
 dn ___,0,$000
 dn ___,0,$000
 dn ___,0,$000
 dn ___,0,$000
 dn ___,0,$000
 dn ___,0,$000
 dn ___,0,$000
 dn ___,0,$000
 dn ___,0,$000
 dn ___,0,$000
 dn ___,0,$000
 dn ___,0,$000
 dn ___,0,$000
 dn ___,0,$000
 dn ___,0,$000
 dn ___,0,$000
 dn ___,0,$000
 dn ___,0,$000
 dn ___,0,$000
 dn ___,0,$000
 dn ___,0,$000
 dn ___,0,$000
 dn ___,0,$000
 dn ___,0,$000
 dn ___,0,$000
 dn ___,0,$000
 dn ___,0,$000
 dn ___,0,$000
 dn ___,0,$000
 dn ___,0,$000
 dn ___,0,$000
 dn ___,0,$000
 dn ___,0,$000
 dn ___,0,$000
 dn ___,0,$000
 dn ___,0,$000
 dn ___,0,$000
 dn ___,0,$000
 dn ___,0,$000
 dn ___,0,$000
 dn ___,0,$000

itNoiseSP1:
 dn ___,0,$000
 dn 65,0,$000
 dn 49,0,$000
 dn 40,0,$000
 dn 30,0,$000
 dn 21,0,$000
 dn 10,7,$000
 dn ___,0,$000
 dn ___,0,$000
 dn ___,0,$000
 dn ___,0,$000
 dn ___,0,$000
 dn ___,0,$000
 dn ___,0,$000
 dn ___,0,$000
 dn ___,0,$000
 dn ___,0,$000
 dn ___,0,$000
 dn ___,0,$000
 dn ___,0,$000
 dn ___,0,$000
 dn ___,0,$000
 dn ___,0,$000
 dn ___,0,$000
 dn ___,0,$000
 dn ___,0,$000
 dn ___,0,$000
 dn ___,0,$000
 dn ___,0,$000
 dn ___,0,$000
 dn ___,0,$000
 dn ___,1,$000

itNoiseSP2:
 dn ___,0,$000
 dn 26,2,$000
 dn 44,0,$000
 dn 44,0,$000
 dn 44,0,$000
 dn 44,0,$000
 dn 44,0,$000
 dn ___,0,$000
 dn ___,0,$000
 dn ___,0,$000
 dn ___,0,$000
 dn ___,0,$000
 dn ___,0,$000
 dn ___,0,$000
 dn ___,0,$000
 dn ___,0,$000
 dn ___,0,$000
 dn ___,0,$000
 dn ___,0,$000
 dn ___,0,$000
 dn ___,0,$000
 dn ___,0,$000
 dn ___,0,$000
 dn ___,0,$000
 dn ___,0,$000
 dn ___,0,$000
 dn ___,0,$000
 dn ___,0,$000
 dn ___,0,$000
 dn ___,0,$000
 dn ___,0,$000
 dn ___,1,$000

itNoiseSP3:
 dn ___,0,$000
 dn 34,0,$000
 dn 36,0,$000
 dn 36,0,$000
 dn 36,0,$000
 dn 36,0,$000
 dn 36,7,$000
 dn ___,0,$000
 dn ___,0,$000
 dn ___,0,$000
 dn ___,0,$000
 dn ___,0,$000
 dn ___,0,$000
 dn ___,0,$000
 dn ___,0,$000
 dn ___,0,$000
 dn ___,0,$000
 dn ___,0,$000
 dn ___,0,$000
 dn ___,0,$000
 dn ___,0,$000
 dn ___,0,$000
 dn ___,0,$000
 dn ___,0,$000
 dn ___,0,$000
 dn ___,0,$000
 dn ___,0,$000
 dn ___,0,$000
 dn ___,0,$000
 dn ___,0,$000
 dn ___,0,$000
 dn ___,1,$000

duty_instruments:
itSquareinst1:
db 8
db 0
db 240
dw 0
db 128

itSquareinst2:
db 8
db 64
db 240
dw 0
db 128

itSquareinst3:
db 8
db 128
db 240
dw 0
db 128

itSquareinst4:
db 8
db 192
db 240
dw 0
db 128

itSquareinst5:
db 8
db 0
db 241
dw 0
db 128

itSquareinst6:
db 8
db 64
db 241
dw 0
db 128

itSquareinst7:
db 8
db 128
db 241
dw 0
db 128

itSquareinst8:
db 8
db 192
db 241
dw 0
db 128

itSquareinst9:
db 59
db 250
db 161
dw 0
db 192



wave_instruments:
itWaveinst1:
db 0
db 32
db 0
dw 0
db 128

itWaveinst2:
db 0
db 32
db 1
dw 0
db 128

itWaveinst3:
db 0
db 32
db 2
dw 0
db 128

itWaveinst4:
db 0
db 32
db 3
dw 0
db 128

itWaveinst5:
db 0
db 32
db 4
dw 0
db 128



noise_instruments:
itNoiseinst1:
db 226
dw itNoiseSP1
db 241
ds 2

itNoiseinst2:
db 99
dw itNoiseSP2
db 0
ds 2

itNoiseinst3:
db 241
dw itNoiseSP3
db 121
ds 2



routines:
__hUGE_Routine_0:

__end_hUGE_Routine_0:
ret

__hUGE_Routine_1:

__end_hUGE_Routine_1:
ret

__hUGE_Routine_2:

__end_hUGE_Routine_2:
ret

__hUGE_Routine_3:

__end_hUGE_Routine_3:
ret

__hUGE_Routine_4:

__end_hUGE_Routine_4:
ret

__hUGE_Routine_5:

__end_hUGE_Routine_5:
ret

__hUGE_Routine_6:

__end_hUGE_Routine_6:
ret

__hUGE_Routine_7:

__end_hUGE_Routine_7:
ret

__hUGE_Routine_8:

__end_hUGE_Routine_8:
ret

__hUGE_Routine_9:

__end_hUGE_Routine_9:
ret

__hUGE_Routine_10:

__end_hUGE_Routine_10:
ret

__hUGE_Routine_11:

__end_hUGE_Routine_11:
ret

__hUGE_Routine_12:

__end_hUGE_Routine_12:
ret

__hUGE_Routine_13:

__end_hUGE_Routine_13:
ret

__hUGE_Routine_14:

__end_hUGE_Routine_14:
ret

__hUGE_Routine_15:

__end_hUGE_Routine_15:
ret

waves:
wave0: db 0,0,255,255,255,255,255,255,255,255,255,255,255,255,255,255
wave1: db 0,0,0,0,255,255,255,255,255,255,255,255,255,255,255,255
wave2: db 0,0,0,0,0,0,0,0,255,255,255,255,255,255,255,255
wave3: db 0,0,0,0,0,0,0,0,0,0,0,0,255,255,255,255
wave4: db 0,1,18,35,52,69,86,103,120,137,154,171,188,205,222,239

